<svg width="30" height="30" viewBox="0 0 30 30" fill="none" xmlns="http://www.w3.org/2000/svg">
<rect x="21" y="7.67188" width="1.33333" height="1.33333" fill="#818181"/>
<rect x="19.6641" y="10.3359" width="1.33333" height="1.33333" fill="#818181"/>
<rect x="18.3359" y="6.33594" width="1.33333" height="1.33333" fill="#818181"/>
<rect x="18.3359" y="7.67188" width="1.33333" height="1.33333" fill="#818181"/>
<rect x="18.3359" y="9" width="1.33333" height="1.33333" fill="#818181"/>
<rect x="6.33594" y="22.3281" width="1.33333" height="1.33333" fill="#818181"/>
<rect x="7.67188" y="22.3281" width="1.33333" height="1.33333" fill="#818181"/>
<rect x="9" y="22.3281" width="1.33333" height="1.33333" fill="#818181"/>
<rect x="10.3359" y="22.3281" width="1.33333" height="1.33333" fill="#818181"/>
<rect x="11.6641" y="22.3281" width="1.33333" height="1.33333" fill="#818181"/>
<rect x="12.9922" y="22.3281" width="1.33333" height="1.33333" fill="#818181"/>
<rect x="14.3359" y="22.3281" width="1.33333" height="1.33333" fill="#818181"/>
<rect x="15.6641" y="22.3281" width="1.33333" height="1.33333" fill="#818181"/>
<rect x="15.6641" y="21" width="1.33333" height="1.33333" fill="#818181"/>
<rect x="15.6641" y="19.6641" width="1.33333" height="1.33333" fill="#818181"/>
<rect x="22.3281" y="9" width="1.33333" height="1.33333" fill="#818181"/>
<rect x="22.3281" y="10.3359" width="1.33333" height="1.33333" fill="#818181"/>
<rect x="21" y="10.3359" width="1.33333" height="1.33333" fill="#818181"/>
<rect x="17.0078" y="18.3359" width="1.33333" height="1.33333" fill="#818181"/>
<rect x="18.3359" y="18.3359" width="1.33333" height="1.33333" fill="#818181"/>
<rect x="19.6641" y="18.3359" width="1.33333" height="1.33333" fill="#818181"/>
<rect x="21" y="18.3359" width="1.33333" height="1.33333" fill="#818181"/>
<rect x="22.3281" y="18.3359" width="1.33333" height="1.33333" fill="#818181"/>
<rect x="22.3281" y="17.0078" width="1.33333" height="1.33333" fill="#818181"/>
<rect x="22.3281" y="15.6641" width="1.33333" height="1.33333" fill="#818181"/>
<rect x="22.3281" y="14.3359" width="1.33333" height="1.33333" fill="#818181"/>
<rect x="22.3281" y="12.9922" width="1.33333" height="1.33333" fill="#818181"/>
<rect x="22.3281" y="11.6641" width="1.33333" height="1.33333" fill="#818181"/>
<rect x="19.6641" y="6.33594" width="1.33333" height="1.33333" fill="#818181"/>
<rect x="18.3359" y="10.3359" width="1.33333" height="1.33333" fill="#818181"/>
<rect x="17.0078" y="6.33594" width="1.33333" height="1.33333" fill="#818181"/>
<rect x="15.6641" y="6.33594" width="1.33333" height="1.33333" fill="#818181"/>
<rect x="14.3359" y="6.33594" width="1.33333" height="1.33333" fill="#818181"/>
<rect x="12.9922" y="6.33594" width="1.33333" height="1.33333" fill="#818181"/>
<rect x="12.9922" y="7.67188" width="1.33333" height="1.33333" fill="#818181"/>
<rect x="12.9922" y="9" width="1.33333" height="1.33333" fill="#818181"/>
<rect x="10.3359" y="10.3359" width="1.33333" height="1.33333" fill="#818181"/>
<rect x="11.6641" y="10.3359" width="1.33333" height="1.33333" fill="#818181"/>
<rect x="12.9922" y="10.3359" width="1.33333" height="1.33333" fill="#818181"/>
<rect x="9" y="10.3359" width="1.33333" height="1.33333" fill="#818181"/>
<rect x="7.67188" y="10.3359" width="1.33333" height="1.33333" fill="#818181"/>
<rect x="6.33594" y="10.3359" width="1.33333" height="1.33333" fill="#818181"/>
<rect x="6.33594" y="11.6641" width="1.33333" height="1.33333" fill="#818181"/>
<rect x="12.9922" y="11.6641" width="1.33333" height="1.33333" fill="#818181"/>
<rect x="6.33594" y="12.9922" width="1.33333" height="1.33333" fill="#818181"/>
<rect x="12.9922" y="12.9922" width="1.33333" height="1.33333" fill="#818181"/>
<rect x="6.33594" y="14.3359" width="1.33333" height="1.33333" fill="#818181"/>
<rect x="12.9922" y="14.3359" width="1.33333" height="1.33333" fill="#818181"/>
<rect x="6.33594" y="15.6641" width="1.33333" height="1.33333" fill="#818181"/>
<rect x="12.9922" y="15.6641" width="1.33333" height="1.33333" fill="#818181"/>
<rect x="6.33594" y="17.0078" width="1.33333" height="1.33333" fill="#818181"/>
<rect x="12.9922" y="17.0078" width="1.33333" height="1.33333" fill="#818181"/>
<rect x="6.33594" y="18.3359" width="1.33333" height="1.33333" fill="#818181"/>
<rect x="12.9922" y="18.3359" width="1.33333" height="1.33333" fill="#818181"/>
<rect x="14.3359" y="18.3359" width="1.33333" height="1.33333" fill="#818181"/>
<rect x="15.6641" y="18.3359" width="1.33333" height="1.33333" fill="#818181"/>
<rect x="6.33594" y="19.6641" width="1.33333" height="1.33333" fill="#818181"/>
<rect x="6.33594" y="21" width="1.33333" height="1.33333" fill="#818181"/>
</svg>
