<svg width="30" height="30" viewBox="0 0 30 30" fill="none" xmlns="http://www.w3.org/2000/svg">
<rect x="22.3359" y="6.32812" width="1.33307" height="1.33336" fill="#818181"/>
<rect x="21" y="7.66406" width="1.33307" height="1.33336" fill="#818181"/>
<rect x="19.6719" y="9" width="1.33307" height="1.33336" fill="#818181"/>
<rect x="19.6719" y="7.67188" width="1.33307" height="1.33336" fill="#818181"/>
<rect x="21" y="9" width="1.33307" height="1.33336" fill="#818181"/>
<rect x="5" y="20.9922" width="1.33307" height="1.33336" fill="#818181"/>
<rect x="5" y="22.3359" width="1.33307" height="1.33336" fill="#818181"/>
<rect x="5" y="23.6641" width="1.33307" height="1.33336" fill="#818181"/>
<rect x="6.32812" y="23.6641" width="1.33307" height="1.33336" fill="#818181"/>
<rect x="7.66406" y="23.6641" width="1.33307" height="1.33336" fill="#818181"/>
<rect x="8.99219" y="17.0078" width="1.33307" height="1.33336" fill="#818181"/>
<rect x="7.66406" y="18.3359" width="1.33307" height="1.33336" fill="#818181"/>
<rect x="6.32812" y="19.6641" width="1.33307" height="1.33336" fill="#818181"/>
<rect x="11.6641" y="19.6641" width="1.33307" height="1.33336" fill="#818181"/>
<rect x="10.3281" y="21" width="1.33307" height="1.33336" fill="#818181"/>
<rect x="9" y="22.3359" width="1.33307" height="1.33336" fill="#818181"/>
<rect x="6.33594" y="22.3359" width="1.33307" height="1.33336" fill="#818181"/>
<rect x="7.66406" y="21" width="1.33307" height="1.33336" fill="#818181"/>
<rect x="23.6641" y="7.66406" width="1.33307" height="1.33336" fill="#818181"/>
<rect x="22.3359" y="9" width="1.33307" height="1.33336" fill="#818181"/>
<rect x="21" y="10.3281" width="1.33307" height="1.33336" fill="#818181"/>
<rect x="18.3281" y="12.9922" width="1.33307" height="1.33336" fill="#818181"/>
<rect x="19.6719" y="11.6641" width="1.33307" height="1.33336" fill="#818181"/>
<rect x="17" y="14.3281" width="1.33307" height="1.33336" fill="#818181"/>
<rect x="15.6641" y="15.6641" width="1.33307" height="1.33336" fill="#818181"/>
<rect x="14.3359" y="17.0078" width="1.33307" height="1.33336" fill="#818181"/>
<rect x="12.9922" y="18.3359" width="1.33307" height="1.33336" fill="#818181"/>
<rect x="21" y="5" width="1.33307" height="1.33336" fill="#818181"/>
<rect x="21" y="6.32812" width="1.33307" height="1.33336" fill="#818181"/>
<rect x="22.3359" y="7.66406" width="1.33307" height="1.33336" fill="#818181"/>
<rect x="19.6719" y="6.32812" width="1.33307" height="1.33336" fill="#818181"/>
<rect x="18.3281" y="7.66406" width="1.33307" height="1.33336" fill="#818181"/>
<rect x="15.6641" y="10.3281" width="1.33307" height="1.33336" fill="#818181"/>
<rect x="17" y="9" width="1.33307" height="1.33336" fill="#818181"/>
<rect x="14.3359" y="11.6641" width="1.33307" height="1.33336" fill="#818181"/>
<rect x="12.9922" y="12.9922" width="1.33307" height="1.33336" fill="#818181"/>
<rect x="11.6641" y="14.3281" width="1.33307" height="1.33336" fill="#818181"/>
<rect x="10.3281" y="15.6641" width="1.33307" height="1.33336" fill="#818181"/>
</svg>
