<svg width="30" height="30" viewBox="0 0 30 30" fill="none" xmlns="http://www.w3.org/2000/svg">
<rect width="1.33333" height="1.33333" transform="matrix(0.866032 -0.499988 0.500012 0.866018 18.7578 8.26562)" fill="#818181"/>
<rect width="1.33333" height="1.33333" transform="matrix(0.866032 -0.499988 0.500012 0.866018 20.5781 8.75781)" fill="#818181"/>
<rect x="21" y="5" width="1.33334" height="1.33332" fill="#818181"/>
<rect x="22.3359" y="6.33594" width="1.33334" height="1.33332" fill="#818181"/>
<rect x="17" y="6.33594" width="1.33334" height="1.33332" fill="#818181"/>
<rect x="15.6641" y="7.66406" width="1.33334" height="1.33332" fill="#818181"/>
<rect x="15.6641" y="11.6641" width="1.33334" height="1.33332" fill="#818181"/>
<rect x="13" y="14.3359" width="1.33334" height="1.33332" fill="#818181"/>
<rect x="14.3359" y="12.9922" width="1.33334" height="1.33332" fill="#818181"/>
<rect x="11.6641" y="15.6641" width="1.33334" height="1.33332" fill="#818181"/>
<rect x="10.3281" y="17" width="1.33334" height="1.33332" fill="#818181"/>
<rect x="9" y="18.3359" width="1.33334" height="1.33332" fill="#818181"/>
<rect x="7.66406" y="19.6641" width="1.33334" height="1.33332" fill="#818181"/>
<rect x="6.33594" y="21" width="1.33334" height="1.33332" fill="#818181"/>
<rect x="5" y="22.3281" width="1.33334" height="1.33332" fill="#818181"/>
<rect x="6.33594" y="23.6641" width="1.33334" height="1.33332" fill="#818181"/>
<rect x="5" y="23.6641" width="1.33334" height="1.33332" fill="#818181"/>
<rect x="7.66406" y="22.3281" width="1.33334" height="1.33332" fill="#818181"/>
<rect x="14.3359" y="19.6641" width="1.33334" height="1.33332" fill="#818181"/>
<rect x="9" y="21" width="1.33334" height="1.33332" fill="#818181"/>
<rect x="10.3281" y="19.6641" width="1.33334" height="1.33332" fill="#818181"/>
<rect x="11.6641" y="18.3359" width="1.33334" height="1.33332" fill="#818181"/>
<rect x="8.99219" y="23.6719" width="1.33334" height="1.33332" fill="#818181"/>
<rect x="13" y="17" width="1.33334" height="1.33332" fill="#818181"/>
<rect x="14.3359" y="15.6641" width="1.33334" height="1.33332" fill="#818181"/>
<rect x="15.6641" y="14.3359" width="1.33334" height="1.33332" fill="#818181"/>
<rect x="17" y="12.9922" width="1.33334" height="1.33332" fill="#818181"/>
<rect x="14.3359" y="18.3359" width="1.33334" height="1.33332" fill="#818181"/>
<rect x="13" y="19.6641" width="1.33334" height="1.33332" fill="#818181"/>
<rect x="18.3438" y="12.9922" width="1.33334" height="1.33332" fill="#818181"/>
<rect x="21" y="12.9922" width="1.33334" height="1.33332" fill="#818181"/>
<rect x="22.3359" y="11.6641" width="1.33334" height="1.33332" fill="#818181"/>
<rect x="23.6641" y="10.3359" width="1.33334" height="1.33332" fill="#818181"/>
<rect x="23.6641" y="7.66406" width="1.33334" height="1.33332" fill="#818181"/>
<rect x="19.6719" y="5" width="1.33334" height="1.33332" fill="#818181"/>
<rect x="18.3438" y="5" width="1.33334" height="1.33332" fill="#818181"/>
<rect x="15.6641" y="9" width="1.33334" height="1.33332" fill="#818181"/>
<rect x="15.6641" y="10.3359" width="1.33334" height="1.33332" fill="#818181"/>
<rect x="19.6719" y="12.9922" width="1.33334" height="1.33332" fill="#818181"/>
<rect x="23.6641" y="9" width="1.33334" height="1.33332" fill="#818181"/>
<rect x="23.6641" y="9" width="1.33334" height="1.33332" fill="#818181"/>
<rect width="1.33333" height="1.33333" transform="matrix(0.866032 -0.499988 0.500012 0.866018 20.0859 10.5781)" fill="#818181"/>
<rect width="1.33333" height="1.33333" transform="matrix(0.866032 -0.499988 0.500012 0.866018 19.4219 9.42188)" fill="#818181"/>
<rect width="1.33333" height="1.33333" transform="matrix(0.866032 -0.499988 0.500012 0.866018 18.2734 10.0859)" fill="#818181"/>
</svg>
