<svg width="30" height="30" viewBox="0 0 30 30" fill="none" xmlns="http://www.w3.org/2000/svg">
<mask id="mask0_3725_969" style="mask-type:luminance" maskUnits="userSpaceOnUse" x="0" y="0" width="30" height="30">
<path d="M30 0H0V30H30V0Z" fill="white"/>
</mask>
<g mask="url(#mask0_3725_969)">
<path d="M12.0998 21.0859L12.218 21.1578C12.7702 22.0794 13.3614 22.898 14.4639 23.179C15.205 23.368 15.92 23.1565 16.554 22.7685C17.0973 22.436 17.2865 22.0425 17.7216 21.7141L17.8852 21.6788C17.634 22.9394 17.5941 24.2521 18.3419 25.3588C19.1981 26.6259 20.7875 27.277 22.2388 27.5466C24.398 27.9477 26.8009 27.5992 28.2328 29.6523C29.7776 31.8666 28.7384 34.5859 28.6188 37.0185C30.195 38.5779 31.4522 40.4146 31.4636 42.717C31.4718 44.3831 30.7924 46.0806 29.6777 47.316C29.2735 47.7994 28.5954 48.4372 28.2715 48.9118C27.9764 49.3442 27.5965 51.7542 27.5018 52.438H27.3878H23.776H23.3312H6.49739H6.17434H2.69637H2.60325C2.48547 51.8828 1.96592 49.2036 1.74509 48.8702C1.51254 48.5195 1.10003 48.2406 0.825077 47.9055C0.69468 47.7836 0.507959 47.621 0.421273 47.4651L0.252617 47.2896C-0.854773 46.0202 -1.49861 44.3963 -1.46768 42.7088C-1.42218 40.2309 -0.222407 38.5902 1.48577 36.93C1.4751 36.3865 1.37564 35.8393 1.30018 35.3017C1.04265 33.4691 0.736844 31.3943 1.82218 29.7569C3.2803 27.5567 5.53449 27.9975 7.78686 27.5469C9.25654 27.2528 10.9117 26.6448 11.7713 25.3325C12.6353 24.0135 12.4124 22.541 12.0998 21.0859Z" fill="#E3E2D9"/>
<path d="M17.8857 21.6797C17.6344 22.9403 17.5945 24.253 18.3423 25.3597C19.1985 26.6268 20.788 27.2779 22.2393 27.5474C24.3985 27.9485 26.8014 27.6001 28.2333 29.6529C29.7779 31.8675 28.7389 34.5868 28.6192 37.0194C30.1954 38.5788 31.4525 40.4154 31.464 42.7179C31.4722 44.3837 30.7928 46.0815 29.678 47.3169L29.6051 47.2153C29.6739 47.1403 29.7393 47.0635 29.8031 46.9841C30.934 45.577 31.51 43.8309 31.3011 42.0256C30.9601 39.0769 28.7516 37.286 26.6737 35.4581C25.9689 34.8382 25.2917 34.1427 24.559 33.5617L24.5801 33.5034L25.5614 34.3191C25.8747 33.9514 26.1595 33.47 26.5262 33.1615C26.297 33.5922 25.9512 34.0065 25.6638 34.4017C26.601 35.2454 27.591 36.042 28.4913 36.9241C28.7003 35.1584 29.1829 33.216 28.8357 31.455C28.6143 30.3323 28.0495 29.3433 27.0822 28.7038C26.279 28.1726 25.3558 27.9964 24.4101 27.9315C24.1671 27.9148 23.9077 27.8859 23.6678 27.9339C23.6355 27.91 23.594 27.8924 23.5583 27.8737C23.3432 27.8555 23.1278 27.8264 22.9138 27.7977C21.2717 27.5781 19.3775 26.9481 18.3426 25.5706C17.4614 24.3976 17.5309 23.0978 17.722 21.7149L17.8857 21.6797Z" fill="#111111"/>
<path d="M12.0998 21.0859L12.218 21.1578C12.5518 22.5154 12.7379 23.9956 11.9722 25.248C11.1785 26.5466 9.68143 27.2349 8.25131 27.568C7.63906 27.7074 7.01873 27.8092 6.39403 27.8727L6.26143 27.9065C4.8904 27.9351 3.38645 28.1617 2.39756 29.2015C1.37995 30.2714 1.13926 31.6811 1.18688 33.1079C1.22815 34.3434 1.4506 35.5826 1.62341 36.8049C2.50045 35.9787 3.43561 35.2161 4.31794 34.3949C3.98308 33.9692 3.72072 33.494 3.39353 33.0645C3.7843 33.4228 4.05887 33.9021 4.42051 34.2912C4.75405 34.0243 5.07591 33.7038 5.42621 33.4633L5.4464 33.5248C4.87786 33.9188 4.16085 34.7037 3.61906 35.1906C1.56879 37.0328 -0.744318 38.7323 -1.26371 41.6304C-1.57838 43.3601 -1.17669 45.1434 -0.15078 46.5713C0.00704658 46.7954 0.175211 47.0122 0.353061 47.2208L0.252617 47.2896C-0.854773 46.0202 -1.49861 44.3963 -1.46768 42.7088C-1.42218 40.2309 -0.222407 38.5902 1.48577 36.93C1.4751 36.3865 1.37564 35.8393 1.30018 35.3017C1.04265 33.4691 0.736844 31.3943 1.82218 29.7569C3.2803 27.5567 5.53449 27.9975 7.78686 27.5469C9.25654 27.2528 10.9117 26.6448 11.7713 25.3325C12.6353 24.0135 12.4124 22.541 12.0998 21.0859Z" fill="#111111"/>
<path d="M6.25781 27.9088L6.39041 27.875C6.40937 27.886 6.42809 27.8975 6.4473 27.9079C6.79925 28.0989 7.43959 28.1204 7.84544 28.1828C8.96153 28.3575 10.0794 28.5206 11.1989 28.6719C11.9162 28.7637 12.662 28.8014 13.3677 28.9553C13.3863 28.9594 13.4051 28.9624 13.4236 28.9667C13.7659 29.0445 14.3546 29.7323 14.583 30.0133L14.5693 30.0414C14.1133 29.7953 13.9162 29.2639 13.4853 29.0851C12.9669 28.8699 12.2294 28.9066 11.6704 28.8412C10.4263 28.6842 9.18659 28.4945 7.95246 28.272C7.40906 28.1769 6.76588 28.1206 6.25781 27.9088Z" fill="#111111"/>
<path d="M23.556 27.875C23.5918 27.8937 23.6332 27.9113 23.6656 27.9352C22.384 28.2738 20.6192 28.5466 19.3011 28.7308C18.7441 28.8086 16.9284 28.9176 16.5717 29.0798C16.2346 29.2331 16.108 29.6031 15.8406 29.8346C15.7177 29.9412 15.6216 30.0112 15.4609 29.9963L15.5077 30.0314L15.4645 30.0141L15.4893 29.9582C16.0213 29.6887 16.0758 29.1898 16.5914 28.992C17.0911 28.8003 17.7696 28.8113 18.3007 28.7486C19.0227 28.6634 23.0635 28.1219 23.5047 27.9021C23.522 27.8935 23.5389 27.884 23.556 27.875Z" fill="#111111"/>
<path d="M-2.49392 15.2178C-2.07652 12.6998 -0.760263 10.2408 1.55651 9.00017C2.34654 8.57715 3.07063 8.52052 3.94596 8.66581C4.11284 9.01353 4.25437 9.27439 4.44826 9.60837C3.73628 9.69108 3.38408 10.2612 3.30676 10.9371L3.38847 11.0028C3.71334 9.25136 5.13254 9.44296 5.02918 10.7768C4.93681 10.7781 4.91027 10.7144 4.81837 10.6252L4.78336 10.6929C4.93875 10.8575 5.12238 11.0215 5.11629 11.2486C5.07679 11.3353 5.04433 11.408 5.00932 11.4972C5.11163 11.5882 5.11995 11.5417 5.22583 11.5973L5.33302 11.5875C6.0459 14.6967 7.43159 17.328 10.2054 19.0754C10.3201 19.1487 10.4368 19.2187 10.5555 19.2855L10.5151 19.3866C10.9306 19.6137 11.4057 19.8181 11.7939 20.0845C11.8935 20.4206 11.9962 20.7558 12.102 21.0901C12.4146 22.5451 12.6375 24.0176 11.7735 25.3367C10.914 26.6489 9.25875 27.257 7.78907 27.551C5.53669 28.0016 3.2825 27.5609 1.82438 29.761C0.739048 31.3984 1.04485 33.4732 1.30239 35.306C1.37784 35.8433 1.47731 36.3908 1.48797 36.934C-0.220201 38.5946 -1.41998 40.2352 -1.46548 42.7131C-1.49641 44.4006 -0.852566 46.0245 0.254826 47.2937L0.423475 47.4692C0.510162 47.625 0.696882 47.7876 0.82728 47.9098C1.10223 48.2447 1.51475 48.5236 1.7473 48.8745C1.96813 49.2076 2.48768 51.8868 2.60546 52.442H-19.3423H-19.4428H-20.2656C-19.8904 51.1152 -18.9265 50.0244 -17.7577 49.3143L-17.7766 49.2498C-17.2849 48.9844 -16.6123 48.8716 -16.075 48.6967C-16.0354 48.6838 -15.996 48.6709 -15.957 48.6563L-15.7286 48.743C-15.2018 48.4802 -14.5789 48.3484 -14.0141 48.1834C-12.1304 47.6326 -8.80316 46.9005 -7.37532 45.6287C-6.76849 45.0882 -6.30803 44.4024 -6.27086 43.5709C-6.11889 40.1693 -11.0611 37.6767 -13.7515 36.6466C-14.2678 36.4491 -14.7897 36.2666 -15.3164 36.0985C-15.7746 35.9573 -16.2795 35.8503 -16.71 35.6367C-17.3158 35.3362 -18.0701 34.6093 -18.5227 34.1162C-19.5023 33.0487 -20.1344 31.8747 -20.0573 30.3947C-19.9473 28.2835 -18.1731 26.2611 -16.4221 25.2184C-15.9431 24.9332 -15.4062 24.7349 -14.8879 24.5329C-14.5529 24.4023 -14.2018 24.2459 -13.8509 24.1663C-13.1736 24.013 -12.1353 24.0671 -11.3906 23.9948C-8.47562 23.7118 -5.32023 22.929 -3.08998 20.9189C-2.38175 20.2806 -1.62103 19.3896 -1.56641 18.3891C-1.58472 18.1434 -1.58692 17.8852 -1.56853 17.6395C-1.55363 17.0172 -2.22075 15.7716 -2.49392 15.2178Z" fill="#1111FF"/>
<path d="M3.37972 11.0044C3.70457 9.25296 5.12379 9.44456 5.02041 10.7784C4.92803 10.7797 4.90149 10.716 4.80959 10.6268L4.7746 10.6944C4.93 10.859 5.1136 11.0231 5.1075 11.2502C5.06804 11.3368 5.03555 11.4096 5.00054 11.4988C5.10288 11.5897 5.11117 11.5433 5.21708 11.5989L5.32427 11.5891C6.03712 14.6982 7.42281 17.3296 10.1966 19.0769C10.3113 19.1503 10.428 19.2202 10.5467 19.287L10.5063 19.3881C9.13773 18.8386 7.13004 16.5394 6.48 15.1875C6.19348 15.1241 5.93743 15.0602 5.67548 14.9274C4.35264 14.2568 3.04161 12.4669 3.29798 10.9386L3.37972 11.0044Z" fill="#E3E2D9"/>
<path d="M6.48 15.1864C6.19348 15.1229 5.93743 15.059 5.67548 14.9262C4.35264 14.2556 3.04161 12.4658 3.29798 10.9375L3.37972 11.0032C3.25495 12.7451 4.74033 14.7423 6.44672 15.0934C6.38778 14.9662 6.21068 14.5614 6.14831 14.4624C5.38662 14.1298 4.72454 13.7447 4.36348 12.9358C4.17446 12.5124 4.25904 12.1379 4.34116 11.7066C4.72193 12.042 5.15877 12.392 5.51327 12.7446C5.41834 12.4125 5.26377 11.9271 5.21708 11.5977L5.32427 11.5879C6.03712 14.6971 7.42281 17.3285 10.1966 19.0758C10.3113 19.1491 10.428 19.2191 10.5467 19.2859L10.5063 19.387C9.13773 18.8375 7.13004 16.5383 6.48 15.1864Z" fill="#111111"/>
<path d="M4.38758 11.8828C4.5568 12.0055 4.65602 12.0896 4.8181 12.223C4.85756 12.233 4.86034 12.2364 4.87546 12.273C4.97633 12.3661 5.07969 12.4563 5.18551 12.5437C5.25266 12.5723 5.24703 12.5692 5.28342 12.634C5.68757 13.0272 5.86004 13.7392 6.08208 14.3229L6.01136 14.2969C5.53478 14.1252 5.11265 13.8295 4.78853 13.4402C4.30725 12.8592 4.33385 12.5456 4.38758 11.8828Z" fill="#E3E2D9"/>
<path d="M3.74219 11.2926C3.83799 10.8878 3.9927 10.2657 4.52145 10.3915L4.42688 10.4372C3.93607 10.4513 3.81569 11.2858 3.79085 11.653C3.76284 11.5184 3.75716 11.4282 3.74219 11.2926Z" fill="#302F31"/>
<path d="M4.52426 10.3906C4.61461 10.4541 4.74478 10.5402 4.81576 10.6227L4.78075 10.6903C4.66605 10.6152 4.54031 10.5192 4.42969 10.4363L4.52426 10.3906Z" fill="#807E7E"/>
<path d="M3.79044 11.6494C3.65922 11.6227 3.72645 11.3876 3.74175 11.2891C3.75672 11.4246 3.76243 11.5148 3.79044 11.6494Z" fill="#807E7E"/>
<path d="M26.3796 8.67446C27.0286 8.64293 27.5872 8.59752 28.2113 8.82862C30.4247 9.64825 31.9309 12.1523 32.5145 14.3319C32.5819 14.6048 32.6466 14.8784 32.7078 15.1527C32.0733 16.4654 31.3092 17.5342 31.8401 19.0461C32.3935 20.6229 34.226 21.8002 35.6616 22.4783C37.5626 23.3759 39.5639 23.8337 41.6554 23.99C42.1672 24.0282 43.4698 24.0265 43.8708 24.1138C44.2491 24.1961 44.6276 24.3671 44.9873 24.5077C45.5006 24.708 46.0116 24.9125 46.4906 25.188C47.9408 26.0224 49.3426 27.4417 49.9195 29.0364C50.3246 30.1568 50.2977 31.515 49.7856 32.5969C49.2286 33.7738 47.7576 35.3224 46.514 35.756C43.5758 36.7808 40.9505 37.607 38.5324 39.6871C37.8389 40.2839 37.1958 40.9427 36.791 41.7736C36.4227 42.5289 36.2794 43.4517 36.5598 44.2597C36.9292 45.3238 37.9095 46.0442 38.8892 46.5074C42.0333 47.9933 45.8413 47.9743 48.4971 50.4903C48.8777 50.8509 49.2442 51.2344 49.4205 51.7389C49.5026 51.9736 49.5087 52.1974 49.5134 52.4423H27.4987C27.5934 51.7586 27.9733 49.3486 28.2684 48.9162C28.5923 48.4416 29.2704 47.8038 29.6744 47.3204C30.7892 46.0849 31.4686 44.3875 31.4604 42.7214C31.449 40.4192 30.1918 38.5826 28.6156 37.0228C28.7353 34.5903 29.7743 31.8713 28.2297 29.6567C26.7978 27.6036 24.3949 27.9521 22.2357 27.551C20.7844 27.2814 19.1949 26.6303 18.3387 25.3632C17.5909 24.2566 17.6309 22.9438 17.8821 21.6832C18.0172 21.1132 18.1578 20.5485 18.3673 20.0004C18.825 19.7786 19.2822 19.5607 19.721 19.3029C19.9763 19.1908 20.3984 18.9067 20.6327 18.7422C22.0878 17.7205 22.7843 16.6562 23.6711 15.2027C25.2258 14.8004 26.4369 13.4451 26.7642 11.8621C26.9366 11.0281 26.6757 9.69668 25.6492 9.57419C25.8375 9.18536 25.9386 8.78019 26.3796 8.67446Z" fill="#1111FF"/>
<path d="M14.9994 0.118814L15.0573 0.117188C15.4673 2.02926 15.8072 2.68905 17.0325 4.19129C17.0862 4.22263 17.1394 4.24877 17.1946 4.2771C17.2573 4.31477 17.6516 4.71614 17.75 4.80722L17.7272 4.88348C17.766 4.91776 17.7995 4.95081 17.8365 4.98679C18.5597 5.61913 19.3838 5.78006 20.127 6.23814C20.1772 6.22382 20.2087 6.21383 20.2577 6.19607L20.301 6.20357C20.6389 6.25932 21.0045 6.25443 21.33 6.31631C22.668 6.57025 23.8387 7.80658 24.3146 9.04305L24.8562 8.7957C24.7605 8.86481 24.4077 9.11225 24.3424 9.18005L24.3069 9.22645C24.4663 9.61918 24.4068 9.73965 24.4637 10.1215C24.4929 10.114 24.5049 10.1026 24.5248 10.1144C24.7682 10.0983 24.8428 10.0476 25.0658 9.95079C25.089 9.8951 25.1198 9.86621 25.1587 9.81623L25.2165 9.84415L25.3219 9.91391C25.251 10.0051 25.1829 10.0655 25.1798 10.1761C25.0984 10.2024 25.0778 10.2018 25.0305 10.2738C25.0353 10.7062 24.9292 11.008 24.8709 11.4007C24.9099 11.4111 24.9583 11.4172 24.998 11.4235L25.1396 11.4817L25.1617 11.5379C25.0527 11.6346 25.0056 11.6243 24.919 11.6857L24.7994 11.6569C23.9043 15.0045 22.7876 17.349 19.6809 19.2113L19.7243 19.2998C19.2855 19.5577 18.8282 19.7756 18.3705 19.9973C18.1611 20.5454 18.0205 21.1102 17.8854 21.6802L17.7217 21.7154C17.2866 22.0439 17.0975 22.4373 16.5541 22.7698C15.9202 23.1579 15.2052 23.3693 14.4641 23.1804C13.3615 22.8994 12.7704 22.0807 12.2182 21.1592L12.0999 21.0873C11.9941 20.753 11.8914 20.4178 11.7918 20.0817C11.4037 19.8153 10.9286 19.6109 10.513 19.3838L10.5534 19.2827C10.4347 19.2159 10.318 19.1459 10.2033 19.0726C7.42951 17.3253 6.04383 14.6939 5.33095 11.5847L5.22375 11.5945C5.11787 11.5389 5.10955 11.5854 5.00725 11.4945C5.04226 11.4053 5.07472 11.3325 5.11421 11.2458C5.1203 11.0187 4.93667 10.8547 4.78128 10.6901L4.81629 10.6225C4.90819 10.7116 4.93471 10.7753 5.02711 10.774C5.13047 9.4402 3.71127 9.24857 3.3864 11L3.30469 10.9343C3.382 10.2584 3.73421 9.68829 4.44618 9.60559L4.53466 9.51069C4.65756 9.66632 4.79871 9.86108 4.97282 9.95729L5.07495 9.92718L5.11134 9.98114C5.17761 10.0866 5.22041 10.108 5.34032 10.1221C5.37287 10.1294 5.40551 10.1367 5.43806 10.1439C5.50904 9.68715 5.60771 9.60494 5.74567 9.20129C5.70984 9.15945 5.70302 9.1562 5.68105 9.10645L5.64229 9.09093L5.70952 9.00992C5.78206 8.95947 5.78596 8.96135 5.83649 8.89607L5.88999 8.93975C6.13726 8.49169 6.32033 8.14388 6.66422 7.75481C8.03013 6.20949 8.84505 6.16824 10.8121 6.4702C11.1162 6.51693 11.79 6.70765 12.0663 6.68665C11.7906 6.42772 10.5207 6.30482 10.0736 6.24037C10.3245 6.1719 10.5596 6.08513 10.8066 6.0074C12.7219 5.40473 14.1857 3.55511 14.721 1.66892C14.861 1.1759 14.9264 0.630633 14.9994 0.118814Z" fill="#E3E2D9"/>
<path d="M20.2559 6.19531L20.2992 6.20281C20.6371 6.25856 21.0026 6.2537 21.3282 6.31555C22.6662 6.56949 23.8369 7.80582 24.3128 9.04232L24.8544 8.79494C24.7587 8.86405 24.4059 9.11149 24.3406 9.17929L24.305 9.22569C24.4645 9.61842 24.405 9.73889 24.4619 10.1207C24.4911 10.1132 24.5031 10.1018 24.523 10.1137C24.7664 10.0975 24.841 10.0469 25.064 9.95003C25.0872 9.89436 25.1179 9.86548 25.1569 9.8155L25.2147 9.84342L25.3201 9.91317C25.2492 10.0043 25.1811 10.0647 25.1779 10.1754C25.0966 10.2017 25.076 10.2011 25.0287 10.2731C25.0335 10.7054 24.9274 11.0073 24.8691 11.3999C24.9081 11.4104 24.9565 11.4165 24.9962 11.4227L25.1378 11.4809L25.1599 11.5372C25.0509 11.6339 25.0038 11.6235 24.9172 11.6849L24.7976 11.6562C24.5898 11.6165 24.5068 11.6158 24.2935 11.6139C23.9793 12.2503 23.64 12.9171 23.343 13.5599L23.2335 13.5327C23.4234 12.9402 23.6406 12.2679 23.7387 11.6557C23.5933 11.322 23.4111 11.0056 23.1952 10.7125C22.6583 9.99383 22.0208 9.55991 21.1318 9.42535C21.1727 9.45295 21.2128 9.48151 21.2522 9.51107C22.6478 10.5646 22.4497 13.3221 21.4552 14.5944C19.9095 16.5718 18.1961 15.0531 18.0404 13.087C17.9364 11.7736 18.2052 10.7567 19.053 9.73979C18.4075 10.124 17.9439 10.528 17.4062 11.0349C17.9044 10.2197 18.6864 9.29782 19.5565 8.84149C20.056 8.57958 20.7356 8.67594 21.0115 8.33164C21.0126 8.30234 21.0219 8.27589 21.0288 8.24642C21.1655 8.09445 21.2609 7.86377 21.3534 7.67527C21.3182 7.87622 21.2607 8.08663 21.3029 8.27973C21.3457 8.31471 21.3693 8.338 21.4172 8.36533L21.3821 8.40611C21.2284 8.39138 21.2932 8.37113 21.1776 8.45472L21.1772 8.52626C21.3406 8.64184 21.8515 8.76327 22.0679 8.82459C22.769 8.60806 22.8036 8.37772 23.3679 8.10828C23.0906 8.51138 22.9374 8.75498 22.5847 9.09482C23.349 9.37733 23.5045 9.3268 24.2521 9.06307C23.1097 6.86319 21.5453 6.00828 19.0671 6.48907C18.8548 6.53026 18.2366 6.77363 18.0844 6.74167L18.0781 6.67385C18.3281 6.40297 19.7016 6.27811 20.1252 6.23741C20.1754 6.22309 20.2069 6.21307 20.2559 6.19531Z" fill="#111111"/>
<path d="M25.0279 10.2734C25.0327 10.7057 24.9267 11.0076 24.8684 11.4003C24.354 11.459 24.2483 11.2049 24.0234 10.7825C24.4628 10.6917 24.6811 10.6523 25.0279 10.2734Z" fill="#E3E2D9"/>
<path d="M24.3041 9.22656C24.4636 9.61929 24.4041 9.73976 24.461 10.1216C24.0648 10.2027 23.6732 10.0303 23.4219 9.723C23.8083 9.57159 23.9676 9.47368 24.3041 9.22656Z" fill="#E3E2D9"/>
<path d="M8.8309 8.27727C8.79249 8.16128 8.72077 7.97943 8.80705 7.88281C8.92588 7.94589 8.96511 8.06709 9.03041 8.19292L9.07769 8.26742C9.34564 8.65851 9.71062 8.53177 10.1563 8.68944C11.036 9.00055 11.9418 9.87327 12.4247 10.6437L12.3378 10.6918C12.0457 10.4356 11.7249 10.1481 11.3974 9.94221C11.625 10.375 11.8525 10.815 11.9945 11.2846C12.2549 12.1454 12.2702 13.0782 12.0038 13.9414C11.8342 14.4907 11.4877 15.07 10.9616 15.344C9.8337 15.9013 8.76448 14.8989 8.32682 13.9291C7.88124 12.9419 7.82713 11.7801 8.2052 10.7633C8.44541 10.128 8.73264 9.79358 9.22412 9.34851C8.10826 9.53369 7.39459 9.96939 6.69832 10.8915C6.41719 11.2639 6.28564 11.6737 6.38268 12.1354C6.50736 12.7286 6.72738 13.4194 6.95147 13.9815C6.3629 13.1206 6.18407 12.6255 5.87426 11.6218C5.68714 11.6143 5.51654 11.612 5.33095 11.5836L5.22375 11.5934C5.11787 11.5378 5.10955 11.5843 5.00725 11.4934C5.04226 11.4042 5.07472 11.3314 5.11421 11.2447C5.1203 11.0176 4.93667 10.8536 4.78128 10.689L4.81629 10.6214C4.90819 10.7105 4.93471 10.7742 5.02711 10.7729C5.13047 9.43909 3.71127 9.24749 3.3864 10.9989L3.30469 10.9332C3.382 10.2573 3.73421 9.68721 4.44618 9.6045L4.53466 9.50958C4.65756 9.66521 4.79871 9.86 4.97282 9.95621L5.07495 9.92609L5.11134 9.98006C5.17761 10.0855 5.22041 10.1069 5.34032 10.121C5.37287 10.1283 5.40551 10.1356 5.43806 10.1429C5.50904 9.68606 5.60771 9.60386 5.74567 9.20021C5.70984 9.15837 5.70302 9.15512 5.68105 9.10537L5.64229 9.08984L5.70952 9.00884C5.78206 8.95839 5.78596 8.96023 5.83649 8.89496L5.88999 8.93867C5.91577 9.01584 5.93303 9.04238 6.01175 9.07648C6.51715 9.2956 6.9155 9.31862 7.41639 9.13484C7.0996 8.75773 6.98265 8.52811 6.8175 8.07181C7.25801 8.47537 7.47182 8.64939 8.02922 8.8577C8.2744 8.72973 8.82999 8.59959 8.90894 8.48636L8.87224 8.34107C8.85841 8.31983 8.84464 8.29851 8.8309 8.27727Z" fill="#111111"/>
<path d="M5.74509 9.20312C5.90285 9.28835 6.85201 9.62799 6.72331 9.73847C6.37518 10.0374 5.9035 10.2674 5.4375 10.1458C5.50849 9.68896 5.60713 9.60675 5.74509 9.20312Z" fill="#E3E2D9"/>
<path d="M5.10156 10.4141C5.4124 10.5729 5.68331 10.6821 6.01855 10.7783C5.95296 10.9385 5.89199 11.0808 5.80507 11.2314C5.7182 11.2961 5.63324 11.3531 5.52801 11.3829C5.4676 11.4001 5.36837 11.427 5.30978 11.3893C5.25224 11.3521 5.23123 11.2319 5.22186 11.1728C5.21113 11.1046 5.19499 11.0366 5.18646 10.9681C5.16326 10.7831 5.13071 10.5984 5.10156 10.4141Z" fill="#E3E2D9"/>
<path d="M19.6757 19.2109L19.7191 19.2995C19.2803 19.5574 18.8231 19.7753 18.3653 19.997C18.1558 20.5451 18.0153 21.1098 17.8802 21.6798L17.7165 21.7151C17.2814 22.0435 17.0923 22.437 16.5489 22.7695C15.915 23.1575 15.2 23.369 14.4588 23.18C13.3563 22.8991 12.7652 22.0804 12.213 21.1588L12.0947 21.087C11.9889 20.7527 11.8862 20.4175 11.7866 20.0814C11.3985 19.815 10.9234 19.6106 10.5078 19.3835L10.5482 19.2823C11.5728 19.8788 12.728 20.328 13.8622 20.666C14.2231 20.7735 14.6057 20.8896 14.9857 20.8851C16.197 20.8708 18.5686 19.8116 19.6757 19.2109Z" fill="#111111"/>
<path d="M21.0105 8.33295C20.0724 8.07209 18.981 8.44976 18.3428 9.15042C18.2553 9.24663 18.0869 9.41608 17.9723 9.47503L17.9832 9.46689L17.9688 9.45411C17.9741 9.32386 18.5724 8.81717 18.6904 8.72163C19.0113 8.46212 19.5704 8.22373 19.9846 8.19596C20.1871 8.21102 20.4287 8.21939 20.6298 8.19531C20.8113 8.20053 20.8511 8.20346 21.0278 8.24772C21.0209 8.2772 21.0116 8.30365 21.0105 8.33295Z" fill="#111111"/>
<path d="M9.03125 8.1961C9.75687 8.04071 10.6994 8.28156 11.3227 8.68266L11.3378 8.69253L11.2461 8.74412C10.6189 8.38925 9.80352 8.13513 9.07854 8.27057L9.03125 8.1961Z" fill="#111111"/>
<path d="M11.3339 8.6875C11.4395 8.74814 12.2309 9.36807 12.0814 9.46003C12.1239 9.46501 11.3203 8.79616 11.2422 8.73912L11.3339 8.6875Z" fill="#575857"/>
<path d="M17.0312 4.1875C17.085 4.21885 17.1381 4.24498 17.1933 4.27328C17.2561 4.31099 17.6504 4.71235 17.7488 4.80344L17.726 4.8797C17.6142 4.81287 17.1162 4.30668 17.0312 4.1875Z" fill="#807E7E"/>
<path d="M8.83078 8.28125C8.84452 8.30249 8.85829 8.32382 8.87212 8.34506C8.75558 8.36387 8.31138 8.481 8.25905 8.45812C8.25603 8.45193 8.25302 8.44584 8.25 8.43963C8.37202 8.32968 8.6683 8.29956 8.83078 8.28125Z" fill="#302F31"/>
<path d="M21.4179 8.36719L21.4955 8.38564C21.4931 8.38518 21.8585 8.46592 21.756 8.50758C21.6871 8.53559 21.4609 8.44418 21.3828 8.40797L21.4179 8.36719Z" fill="#BDBBB7"/>
<path d="M19.9844 8.19588C20.2114 8.14786 20.4021 8.13866 20.6294 8.19524C20.4284 8.21932 20.1869 8.21094 19.9844 8.19588Z" fill="#575857"/>
<path d="M12.3359 10.6965L12.4229 10.6484C12.686 10.9907 12.5972 10.9806 12.3359 10.6965Z" fill="#111111"/>
<path d="M23.2323 13.5312L23.3418 13.5584C23.172 13.8181 23.0828 13.8261 23.2323 13.5312Z" fill="#111111"/>
<path d="M7.32812 14.8516C7.66015 14.9579 7.83215 15.0792 8.13769 15.203C9.0332 15.5658 9.94346 15.6773 10.8913 15.5864C10.9558 15.608 10.9914 15.6323 11.047 15.6734C10.7702 15.7401 10.5794 15.7744 10.381 15.9918C10.3462 16.03 10.2879 16.1196 10.233 16.1331C10.2168 16.1371 10.2006 16.1324 10.1897 16.1194C10.1647 16.0899 10.1633 16.0311 10.1628 15.996C10.1626 15.975 10.1732 15.8862 10.1479 15.8587C10.0971 15.8037 9.56482 15.8482 9.48112 15.8612C9.26544 15.8947 9.14945 15.993 9.02011 16.164C8.99503 16.1972 8.96192 16.2549 8.91836 16.2671C8.91561 16.264 8.912 16.2615 8.90989 16.2579C8.86806 16.188 8.88361 16.0128 8.90201 15.9357C8.90916 15.9055 8.93881 15.8277 8.9135 15.7938C8.89647 15.771 8.86032 15.7654 8.83437 15.7656C8.8123 15.7659 8.79024 15.7674 8.76827 15.7678C8.63512 15.7699 8.50275 15.773 8.36969 15.7783C8.27541 15.8509 8.15846 15.9587 8.05686 16.0134C8.00916 16.0262 8.00348 15.9817 8.00389 15.9553C8.00649 15.7881 8.14583 15.7418 8.22578 15.6307C8.20264 15.5441 7.91661 15.4539 7.81747 15.5056C7.67283 15.581 7.52869 15.6553 7.38112 15.7264C7.51436 15.5547 7.60161 15.4618 7.74985 15.3043C7.57208 15.1315 7.48791 15.0367 7.32812 14.8516Z" fill="#111111"/>
<path d="M19.1366 15.583C19.7004 15.6408 20.357 15.6365 20.9144 15.5342C21.5513 15.4174 22.1116 15.1575 22.7025 14.9062C22.6846 14.9426 22.6675 14.9797 22.6495 15.0159C22.5908 15.1334 22.5162 15.2452 22.4501 15.3589L22.7428 15.6648C22.5176 15.5684 22.2031 15.4025 21.9525 15.5403C21.9457 15.5441 21.9397 15.5493 21.9379 15.5573C21.9321 15.5836 21.9505 15.6089 21.9659 15.6284C21.9756 15.6407 21.9862 15.6523 21.9963 15.6644C22.0468 15.7252 22.1228 15.8687 22.1067 15.9465C22.103 15.9639 22.0906 15.9738 22.074 15.9794C22.0515 15.9869 22.0342 15.9829 22.0155 15.9697C21.9995 15.9584 21.9878 15.9421 21.9736 15.9287C21.7664 15.7317 21.5106 15.7306 21.2389 15.7646C21.2177 15.7672 21.1911 15.7733 21.1772 15.7915C21.1512 15.8254 21.1669 15.8713 21.1769 15.9081C21.1821 15.9274 21.1884 15.9465 21.1938 15.9658C21.2209 16.0644 21.2388 16.1646 21.2584 16.2649C21.1356 16.1245 21.0168 15.9938 20.8821 15.8645C20.7418 15.8442 20.1074 15.7615 20.01 15.8533C19.977 15.8844 19.9778 15.9545 19.9717 15.9947C19.9681 16.018 19.9624 16.0524 19.9452 16.0698C19.9391 16.0761 19.9308 16.0788 19.9222 16.0783C19.8396 16.0736 19.6792 15.8625 19.6164 15.8002C19.5607 15.7877 19.5052 15.7772 19.4494 15.7658C19.3746 15.7504 19.2994 15.7304 19.2256 15.7117C19.1736 15.6981 19.1219 15.6837 19.0703 15.6686L19.1366 15.583Z" fill="#111111"/>
<path d="M14.9556 19.0373C14.8619 19.0537 14.7777 19.0717 14.6864 19.0972C14.6606 19.1045 14.6345 19.1104 14.6088 19.1176C14.4476 19.163 13.896 19.4423 13.7741 19.3868C13.7602 19.3805 13.7489 19.3674 13.7446 19.3528C13.7397 19.3365 13.7424 19.3238 13.7515 19.3099C13.7919 19.2483 13.9444 19.2297 14.0046 19.212C14.6117 19.034 14.8985 18.9476 15.5436 19.0335C15.6757 19.0511 16.1975 19.2012 16.2603 19.3159C16.2677 19.3298 16.2707 19.3412 16.2651 19.3563C16.2599 19.3706 16.2473 19.3806 16.2327 19.3835C16.1365 19.4031 15.9755 19.2918 15.8813 19.2549C15.6977 19.1829 15.5291 19.1228 15.3376 19.076C15.2746 19.0608 15.2109 19.0571 15.1465 19.0515C15.0695 19.0618 15.0308 19.0574 14.9556 19.0373Z" fill="#111111"/>
<path d="M14.9531 19.032C14.9994 19.0128 15.0393 18.9982 15.0895 19.0156C15.1098 19.0226 15.126 19.0345 15.144 19.0461C15.067 19.0565 15.0283 19.0521 14.9531 19.032Z" fill="#BDBBB7"/>
<path d="M10.8906 15.5853C11.0023 15.5625 11.485 15.4872 11.5816 15.5445C11.5881 15.5484 11.5901 15.5526 11.5893 15.5591C11.5891 15.5613 11.5883 15.5634 11.5877 15.5655L11.5606 15.557L11.5569 15.5828C11.4201 15.6335 11.1907 15.6561 11.0463 15.6723C10.9907 15.6312 10.9551 15.6069 10.8906 15.5853Z" fill="#302F31"/>
<path d="M19.0679 15.6745C18.9393 15.6536 18.8019 15.6201 18.673 15.6115C18.6251 15.6083 18.5605 15.613 18.5166 15.584C18.5067 15.5773 18.5009 15.572 18.5 15.5601C18.4996 15.5541 18.5029 15.5536 18.5075 15.5489L18.5289 15.5681L18.5477 15.5365C18.6733 15.5192 18.8131 15.5491 18.9385 15.5604C19.0084 15.5668 19.067 15.5682 19.1341 15.5889L19.0679 15.6745Z" fill="#302F31"/>
<path d="M14.789 16.2812C14.9017 16.4805 14.8476 16.5982 15.0065 16.8465L15.0421 16.9033C14.952 16.8443 14.852 16.7842 14.8029 16.6831C14.7293 16.5311 14.7401 16.4335 14.789 16.2812Z" fill="#111111"/>
<path d="M17.6579 4.50225C16.7385 3.35311 15.7781 2.46019 15.4375 0.851562C16.0231 2.01569 16.8246 3.05803 17.7992 3.92311C17.8261 3.9529 17.8267 3.95249 17.8592 3.97611L18.0846 4.1709C18.1127 4.2019 18.1091 4.19832 18.1443 4.22094C19.4743 5.30279 21.0059 6.10974 22.6502 6.59492C23.2292 6.76742 24.0133 6.93518 24.5571 7.12546C24.9515 8.02051 25.0644 8.98253 25.0645 9.95226C24.8415 10.0491 24.7669 10.0998 24.5235 10.1159C24.5035 10.1041 24.4916 10.1155 24.4623 10.123C24.4054 9.74114 24.465 9.62068 24.3055 9.22792L24.3411 9.18154C24.4064 9.11372 24.7591 8.86628 24.8548 8.79717L24.3132 9.04455C23.8373 7.80805 22.6667 6.57175 21.3286 6.31778C21.0031 6.25593 20.6375 6.26079 20.2997 6.20504L20.2564 6.19757C20.2074 6.2153 20.1758 6.22531 20.1257 6.23964C19.3824 5.78156 18.5583 5.62063 17.8352 4.98825L17.9451 4.97059C18.2289 5.17833 18.3305 5.27185 18.6606 5.44107C18.4069 5.23822 17.7924 4.74538 17.5815 4.5152L17.6579 4.50225Z" fill="#E3E2D9"/>
<path d="M17.6624 4.5C17.89 4.65196 18.1259 4.91332 18.3541 5.09191C18.9407 5.55082 19.5819 5.8957 20.2609 6.19532C20.2118 6.21308 20.1803 6.22307 20.1301 6.23739C19.3869 5.77931 18.5628 5.61838 17.8396 4.98604L17.9495 4.96837C18.2334 5.17608 18.3349 5.2696 18.6651 5.43882C18.4114 5.236 17.7968 4.74313 17.5859 4.51295L17.6624 4.5Z" fill="#575857"/>
<path d="M24.3403 9.17969C24.4855 9.47972 24.5377 9.78136 24.5227 10.114C24.5027 10.1022 24.4908 10.1136 24.4615 10.1211C24.4046 9.73929 24.4642 9.61882 24.3047 9.22609L24.3403 9.17969Z" fill="#575857"/>
<path d="M25.3207 9.91576C25.676 9.61989 26.0817 9.6534 26.3252 10.0426C27.5174 11.9485 25.5989 14.6794 23.7188 15.0809L24.0293 14.4272C25.2622 13.9194 26.2784 13.1078 25.7186 11.6185C25.4384 12.0751 25.002 12.4265 24.6043 12.7945C24.7087 12.4581 24.8566 12.0257 24.9178 11.6875C25.0044 11.6261 25.0515 11.6365 25.1605 11.5398L25.1384 11.4835L24.9968 11.4253C24.9571 11.419 24.9087 11.4129 24.8697 11.4025C24.928 11.0099 25.0341 10.708 25.0293 10.2757C25.0767 10.2037 25.0972 10.2043 25.1785 10.1779C25.1817 10.0673 25.2498 10.0069 25.3207 9.91576Z" fill="#EDEDEC"/>
<path d="M25.0267 10.2775C25.0741 10.2054 25.0947 10.2061 25.176 10.1797C25.1537 10.4095 25.1263 10.6079 25.107 10.8441C25.3225 10.6239 25.7073 10.1654 26.0373 10.4974C26.2128 10.674 26.4939 11.4006 26.4194 11.6277L26.4122 11.6345C26.3998 11.6296 26.3987 11.6308 26.3932 11.6128C26.2387 11.117 26.2663 10.8032 25.8388 10.4501C25.803 10.4591 25.7776 10.4571 25.7381 10.4585C25.2762 10.6607 25.1013 10.9625 24.9942 11.4271C24.9545 11.4208 24.9062 11.4147 24.8672 11.4043C24.9255 11.0116 25.0315 10.7097 25.0267 10.2775Z" fill="#111111"/>
<path d="M26.3886 8.61235C29.5272 8.01215 31.8891 11.6684 32.5752 14.2566L32.5175 14.3293C31.9339 12.1497 30.428 9.64568 28.2145 8.82602C27.5904 8.59495 27.0318 8.64036 26.3828 8.67186L26.3886 8.61235Z" fill="#09224F"/>
<path d="M3.52344 7.50804C4.17395 7.40295 4.84953 7.307 5.49134 7.16406C5.30633 7.65326 5.2015 7.93155 5.09811 8.44832C4.99467 8.96567 5.05915 9.50793 4.97498 9.96139C4.80087 9.86518 4.65972 9.67041 4.53682 9.51479C4.14954 8.87893 3.85546 8.17451 3.52344 7.50804Z" fill="#EDEDEC"/>
<path d="M24.6719 7.14844L25.1291 7.25402C25.2974 7.29188 25.4667 7.32533 25.6368 7.35431C25.7912 7.38158 25.9266 7.41144 26.0847 7.43399L26.5591 7.49909C26.3476 8.0635 25.6711 9.4863 25.216 9.84428L25.1581 9.81636C25.2174 9.01225 24.9703 7.89012 24.6719 7.14844Z" fill="#EDEDEC"/>
<path d="M5.61127 7.13104C6.34773 6.95523 7.08282 6.8014 7.81489 6.60156C7.09161 7.1212 6.08857 8.02158 5.83015 8.89536C5.77958 8.96066 5.77568 8.95879 5.70317 9.00924C5.51336 8.92653 5.32053 8.85092 5.125 8.78248C5.22748 8.13578 5.32973 7.73043 5.61127 7.13104Z" fill="#E3E2D9"/>
<path d="M5.1343 8.86719C5.30727 8.94307 5.46746 9.00769 5.63765 9.09339L5.67641 9.10894C5.69838 9.15869 5.70521 9.16194 5.74104 9.20378C5.60305 9.6074 5.5044 9.68964 5.43342 10.1464C5.40087 10.1392 5.36823 10.1318 5.33568 10.1246C5.21577 10.1104 5.17297 10.089 5.1067 9.98363L5.07031 9.92967C5.11127 9.76549 5.10963 9.12881 5.1343 8.86719Z" fill="#EDEDEC"/>
<path d="M5.67666 9.10938C5.69863 9.15909 5.70546 9.16234 5.74129 9.20418C5.6033 9.60783 5.50466 9.69004 5.43367 10.1468C5.40112 10.1396 5.36849 10.1323 5.33594 10.125C5.41407 9.83362 5.66046 9.29878 5.67666 9.10938Z" fill="#302F31"/>
<path d="M17.1882 4.27692C16.611 3.51034 16.0037 2.97939 15.694 2.0304C15.664 1.93851 15.3788 1.41025 15.4597 1.36719C15.5198 1.38021 15.6189 1.68187 15.6543 1.75919C15.9924 2.49786 16.3973 3.19932 16.9423 3.80629C17.1207 4.01102 17.4266 4.32584 17.5764 4.51355C17.7873 4.74373 18.4018 5.2366 18.6556 5.43942C18.3254 5.2702 18.2238 5.17668 17.94 4.96897L17.8301 4.98661C17.7931 4.95063 17.7596 4.91758 17.7208 4.88333L17.7436 4.80707C17.6452 4.71599 17.2509 4.31462 17.1882 4.27692Z" fill="#E3E2D9"/>
<path d="M17.7494 4.80469C17.8167 4.86313 17.875 4.91156 17.9458 4.96658L17.8359 4.98425C17.7989 4.94827 17.7654 4.91522 17.7266 4.88095L17.7494 4.80469Z" fill="#302F31"/>
<path d="M14.9922 0.123396C15.0046 0.0625117 15.0006 0.0662547 15.029 0.0158706L15.0428 0.0078125C15.0609 0.0202661 15.0503 0.10858 15.0501 0.121766L14.9922 0.123396Z" fill="#807E7E"/>
<path d="M3.40841 7.52344C3.57936 7.68337 3.7283 8.1462 3.83225 8.37305C3.34656 8.26292 2.83116 8.23028 2.3375 8.30288C-0.0085783 8.64817 -1.60475 11.0908 -2.25917 13.1732C-2.34911 13.4592 -2.56384 14.6118 -2.68015 14.7681L-2.72761 14.7416C-2.96463 14.1448 -3.20442 13.5384 -3.33131 12.9068C-3.48514 12.1411 -2.97529 11.384 -2.56457 10.778C-1.14999 8.69042 1.05388 7.98325 3.40841 7.52344Z" fill="#1111FF"/>
<path d="M26.644 7.5C27.0803 7.63333 27.5455 7.68762 27.9925 7.77894C28.5682 7.89665 29.1621 8.092 29.7012 8.32406C31.7344 9.19898 32.7531 10.4754 33.5479 12.4878C33.4111 13.1997 33.2344 13.8819 32.9872 14.564C32.9488 14.6275 32.942 14.6342 32.8738 14.6749C32.7885 14.5915 32.7947 14.4735 32.7742 14.3618C32.422 12.4447 31.2387 10.0987 29.5884 8.98734C28.5819 8.30933 27.446 8.16548 26.2734 8.39177C26.4104 8.09754 26.5397 7.80759 26.644 7.5Z" fill="#1111FF"/>
<path d="M14.2866 1.92969L14.3519 1.94938C13.9533 3.09259 13.0808 4.17335 12.1952 4.98643C11.5325 5.59495 10.2637 6.35436 9.32783 6.21037C9.29912 6.20931 9.1841 6.21517 9.16406 6.18385C9.17335 6.14527 9.31066 6.09227 9.33574 6.07999C9.67353 5.99679 10.2086 5.69776 10.5178 5.52722C11.9914 4.71464 13.4595 3.41629 14.2866 1.92969Z" fill="#E3E2D9"/>
<path d="M9.32783 6.20853C9.29912 6.20747 9.1841 6.21333 9.16406 6.18198C9.17335 6.14343 9.31066 6.09043 9.33574 6.07812C9.45709 6.13373 9.46345 6.13895 9.58978 6.17653C9.55169 6.19071 9.3762 6.20258 9.32783 6.20853Z" fill="#E3E2D9"/>
<path d="M25.6572 11.8906C25.6669 11.8949 25.6919 11.9052 25.703 11.9115C25.7471 11.9369 25.7669 12.045 25.7741 12.0892C25.8165 12.3524 25.8244 12.5629 25.7281 12.8198C25.4726 13.5006 24.8826 13.9573 24.2409 14.2438C24.2077 14.2538 24.1658 14.2716 24.1303 14.2601C24.1162 14.2555 24.1051 14.2459 24.1026 14.2307C24.089 14.1494 24.2153 13.9143 24.2466 13.8269C24.3378 13.5721 24.4133 13.2689 24.5359 13.0307C24.684 12.7428 25.4015 12.1776 25.6572 11.8906Z" fill="#E3E2D9"/>
<path d="M14.4329 1.93654L14.568 1.875C14.1571 3.23927 13.2557 4.45272 12.1072 5.28012C12.0096 5.35052 11.4948 5.70572 11.4011 5.69702L11.3984 5.69254C11.4165 5.66218 12.0875 5.18617 12.2053 5.07956C12.9643 4.39281 14.2083 2.93324 14.4329 1.93654Z" fill="#E3E2D9"/>
<path d="M14.4375 1.93641C14.5248 1.74578 14.6271 1.3948 14.6915 1.27344L14.7005 1.28207C14.7176 1.48393 14.649 1.69075 14.5726 1.87487L14.4375 1.93641Z" fill="#BDBBB7"/>
<path d="M14.2891 1.93047L14.3193 1.85868C14.3359 1.81823 14.4005 1.66325 14.4522 1.66407C14.4922 1.71258 14.3806 1.90272 14.3544 1.95017L14.2891 1.93047Z" fill="#9A9796"/>
<path d="M-3.80245 13.8281L-3.75136 13.8496C0.108448 22.9866 -10.0085 23.7788 -16.2225 23.599L-16.2344 23.5599L-16.027 23.5066C-15.7121 23.5078 -15.2575 23.2838 -14.9571 23.162C-13.537 22.5862 -12.1753 21.9693 -10.9804 20.9871C-9.34138 19.64 -8.16259 17.7822 -7.95789 15.646L-7.86654 15.6442C-8.13443 17.8829 -9.27218 19.7503 -11.0337 21.1457C-12.3403 22.1807 -13.8897 22.8808 -15.4464 23.4528C-15.2112 23.5801 -14.4114 23.4792 -14.0882 23.5135C-13.7388 23.5133 -12.2619 23.459 -11.961 23.3808C-10.6951 23.0518 -8.91209 22.1623 -7.83124 21.4386C-5.92861 20.1649 -4.52444 18.4351 -4.13081 16.1504C-3.99739 15.3759 -3.95084 14.5866 -3.80245 13.8281Z" fill="#111111"/>
<path d="M23.5 -0.5L26.5 7.5L30 8.5V-0.5H23.5Z" fill="#1111FF"/>
<path d="M0 9V0H5.5L3.5 7.5L0 9Z" fill="#1111FF"/>
</g>
</svg>
