<svg width="30" height="30" viewBox="0 0 30 30" fill="none" xmlns="http://www.w3.org/2000/svg">
<rect width="30" height="30" fill="#818181"/>
<path d="M16.6698 10.792L16.2193 17.819L15.3578 17.9723L13.9076 14.6914L8.4761 23.7648L7.70312 23.3021L14.0283 12.7359L15.4379 15.9252L15.7707 10.7344L16.6698 10.792Z" fill="#00FF4C"/>
<path d="M17.5164 7.51664C18.4211 6.88077 19.356 6.69092 20.2611 6.83423C21.1479 6.97465 21.9632 7.42729 22.673 8.0003C24.0871 9.14174 25.2126 10.8659 25.8222 12.0968L26.0449 12.5463L21.5773 15.442L19.7156 13.4266L20.83 22.5004L11.3087 24.0444V13.6247L9.07567 16.9827L3.78125 13.3962L11.5848 7.2L11.9379 7.60972C12.2526 7.97492 12.9269 8.45701 13.8745 8.59767C14.8038 8.73563 16.0437 8.55175 17.5164 7.51664ZM20.085 7.9465C19.4766 7.85018 18.8358 7.96571 18.1639 8.43795C16.4835 9.61903 14.9569 9.89685 13.7091 9.71161C12.756 9.57014 11.9929 9.16222 11.4738 8.72599L5.68286 13.3241L8.76687 15.4133L12.4348 9.89747V22.721L19.5801 21.5622L18.172 10.0956L21.7608 13.981L24.5811 12.1531C23.9846 11.0684 23.0539 9.75499 21.9657 8.87656C21.3477 8.37769 20.7116 8.04572 20.085 7.9465Z" fill="white"/>
<path d="M17.1151 3.76856L16.6647 10.7956L15.7656 10.738L16.2161 3.71094L17.1151 3.76856Z" fill="#00FF4C"/>
</svg>
