<svg width="30" height="30" viewBox="0 0 30 30" fill="none" xmlns="http://www.w3.org/2000/svg">
<rect width="30" height="30" rx="5" fill="#1AAA11"/>
<path d="M2 15.4062C2.04226 15.4062 2.08452 15.4062 3.33185 15.4243C4.57917 15.4424 7.03028 15.4785 9.8118 15.4062" stroke="white" stroke-width="2" stroke-linecap="round"/>
<path d="M5.71875 11.8594C5.71875 11.8949 5.71875 11.9304 5.71875 13.05C5.71875 14.1695 5.71875 16.372 6.10294 18.8566" stroke="white" stroke-width="2" stroke-linecap="round"/>
<path d="M10.8359 11.6464C11.1753 11.3967 12.7031 9.82931 13.3965 8.74205C13.4801 8.611 13.4817 8.4557 13.5035 8.6134C13.5253 9.23293 13.483 9.85084 13.419 11.718C13.3972 13.4431 13.3972 16.7469 13.3972 20.1507" stroke="white" stroke-width="2" stroke-linecap="round"/>
<path d="M10.0703 20.5781C10.1548 20.5781 11.6352 20.5781 13.8968 20.5959C14.7215 20.6136 14.8906 20.6492 15.2946 20.6675C15.6987 20.6858 16.3326 20.6858 16.9857 20.6858" stroke="white" stroke-width="2" stroke-linecap="round"/>
<path d="M24.9224 9.81137C24.5408 9.49058 23.4344 8.77363 22.5136 8.43077C21.4346 8.02898 19.718 8.51742 18.9919 8.94856C18.5568 9.2069 18.1364 9.3797 17.9021 9.61222C17.4123 10.0982 17.5384 10.9202 17.5371 12.0677C17.5363 12.8098 18.3887 13.3251 19.2416 13.7395C19.9204 14.0694 20.7783 14.0097 21.4622 14.1168C22.2691 14.2432 23.2115 14.2961 23.8954 14.4398C24.5792 14.5835 25.2605 14.7977 25.9232 15.1029C26.56 15.3961 26.7998 16.0163 26.9497 16.7688C27.1106 17.5769 26.8447 18.3135 26.5892 18.7075C26.1229 19.4266 25.2247 19.8572 24.5197 20.1269C23.7688 20.4141 22.2869 20.4687 21.1901 20.29C20.4036 20.1618 19.718 19.8249 19.1827 19.2867C18.7767 18.7474 18.4771 18.3889 18.3919 18.0848C18.349 17.9228 18.3067 17.7451 18.2632 17.5621" stroke="white" stroke-width="2" stroke-linecap="round"/>
<path d="M20.5703 5.9375C20.5703 7.64375 20.6548 11.1736 20.7195 11.9449C20.7845 12.7206 20.911 13.4342 21.0819 14.0091C21.1671 14.2954 21.2106 14.9747 21.2318 15.8531C21.3387 18.2278 21.3809 21.9396 21.445 22.4219C21.4667 22.7265 21.4667 23.1528 21.4667 23.592" stroke="white" stroke-width="2" stroke-linecap="round"/>
</svg>
