<svg width="30" height="30" viewBox="0 0 30 30" fill="none" xmlns="http://www.w3.org/2000/svg">
<rect width="30" height="30" rx="15" fill="#F12323"/>
<path d="M21.7941 6.52193C22.3345 7.91075 22.818 9.46471 23.2448 11.1838L20.8198 11.7588C20.4778 10.5589 20.0684 9.3582 19.5916 8.15657C19.1254 6.91872 18.6365 5.78739 18.125 4.76256L20.0936 2.62716C20.7051 3.83055 21.272 5.12881 21.7941 6.52193Z" fill="#1AFF11"/>
<path d="M8.36522 23.5606C7.80824 21.9398 7.29214 20.2081 6.81691 18.3656L9.24191 17.7907C9.646 19.414 10.1742 21.0754 10.8266 22.7747C11.4895 24.4379 12.1116 25.8073 12.6928 26.883L10.0226 27.5162C9.46708 26.468 8.91463 25.1495 8.36522 23.5606Z" fill="#1AFF11"/>
<path d="M16.2851 20.6715C16.8921 21.7748 17.4771 22.6643 18.0402 23.3398C18.6138 23.9791 19.2004 24.4299 19.7998 24.6923C20.3916 24.9228 21.0145 24.9605 21.6685 24.8054C22.5585 24.5944 23.2307 24.0305 23.6848 23.1138C24.1496 22.1609 24.4062 20.9371 24.4547 19.4423C24.4956 17.9157 24.3292 16.2023 23.9554 14.302L21.5031 14.8835C21.7014 15.8815 21.7892 16.7371 21.7664 17.4504C21.7543 18.1275 21.6536 18.6738 21.4644 19.0895C21.2676 19.4733 20.9875 19.7082 20.6242 19.7944C20.2246 19.8891 19.8363 19.8295 19.4594 19.6155C19.1007 19.3971 18.7366 18.9946 18.3673 18.408C17.998 17.8214 14.1951 9.4698 13.4474 8.09645C12.6997 6.7231 11.9315 5.70854 11.1429 5.05279C10.3725 4.39272 9.50588 4.17683 8.54314 4.40509C7.25344 4.71089 6.40041 5.80645 5.98406 7.69177C5.56014 9.54518 5.62815 12.0573 6.18809 15.228L8.61309 14.6531C8.32859 12.9676 8.27188 11.717 8.44296 10.9011C8.62464 10.049 8.99704 9.55616 9.56014 9.42265C9.9416 9.3322 10.3064 9.41426 10.6546 9.66881C10.9951 9.89144 11.3486 10.3301 11.7149 10.9849C12.0811 11.6397 15.6782 19.5681 16.2851 20.6715Z" fill="#1AFF11"/>
<path d="M3.97419 19.0331L3.23639 15.9213L12.9636 13.615L14.3281 16.5781L3.97419 19.0331Z" fill="#1111FF"/>
<path d="M26.2344 13.7578L23.9456 14.3005L21.4934 14.8819L17.1611 15.9091L15.7966 12.946L20.8101 11.7573L23.2351 11.1823L25.4966 10.6461L26.2344 13.7578Z" fill="#1111FF"/>
</svg>
