<svg width="16" height="16" viewBox="0 0 16 16" fill="none" xmlns="http://www.w3.org/2000/svg">
<g clip-path="url(#clip0_3081_464)">
<path fill-rule="evenodd" clip-rule="evenodd" d="M7.99824 0.265625C3.7284 0.265625 0.265625 3.72795 0.265625 7.99921C0.265625 11.4155 2.48125 14.3143 5.55426 15.3373C5.94119 15.408 6.08218 15.1693 6.08218 14.9642C6.08218 14.7804 6.07553 14.2943 6.07174 13.6491C3.92068 14.1163 3.46682 12.6123 3.46682 12.6123C3.11503 11.7189 2.60801 11.481 2.60801 11.481C1.90587 11.0015 2.66119 11.011 2.66119 11.011C3.43739 11.0656 3.84567 11.8081 3.84567 11.8081C4.53547 12.9897 5.65586 12.6483 6.09643 12.4504C6.16669 11.951 6.36655 11.6101 6.58731 11.4169C4.87016 11.2213 3.06472 10.5581 3.06472 7.59473C3.06472 6.75016 3.36618 6.06037 3.86086 5.51963C3.7811 5.32404 3.51573 4.53785 3.93681 3.473C3.93681 3.473 4.58578 3.26505 6.06319 4.26534C6.67989 4.09396 7.34168 4.00851 7.99919 4.00518C8.65624 4.00851 9.31756 4.09396 9.9352 4.26534C11.4117 3.26505 12.0597 3.473 12.0597 3.473C12.4817 4.53785 12.2163 5.32404 12.1371 5.51963C12.6327 6.06037 12.9318 6.75016 12.9318 7.59473C12.9318 10.5657 11.1234 11.2194 9.40111 11.4107C9.67836 11.6495 9.92571 12.1214 9.92571 12.843C9.92571 13.8765 9.91621 14.7106 9.91621 14.9642C9.91621 15.1711 10.0558 15.4119 10.4479 15.3363C13.5185 14.3114 15.7323 11.415 15.7323 7.99921C15.7323 3.72795 12.2695 0.265625 7.99824 0.265625Z" fill="white"/>
</g>
<defs>
<clipPath id="clip0_3081_464">
<rect width="16" height="16" fill="white"/>
</clipPath>
</defs>
</svg>
