<svg width="16" height="16" viewBox="0 0 16 16" fill="none" xmlns="http://www.w3.org/2000/svg">
<g clip-path="url(#clip0_3081_454)">
<path d="M15.8319 8.17739C15.8319 7.65072 15.7852 7.15072 15.7052 6.66406H8.17188V9.67072H12.4852C12.2919 10.6574 11.7252 11.4907 10.8852 12.0574V14.0574H13.4586C14.9652 12.6641 15.8319 10.6107 15.8319 8.17739Z" fill="white"/>
<path d="M8.17125 15.9968C10.3313 15.9968 12.138 15.2768 13.458 14.0568L10.8846 12.0568C10.1645 12.5368 9.25125 12.8301 8.17125 12.8301C6.08459 12.8301 4.31792 11.4235 3.68459 9.52344H1.03125V11.5835C2.34459 14.1968 5.04459 15.9968 8.17125 15.9968Z" fill="white"/>
<path d="M3.68521 9.52739C3.51854 9.04739 3.43187 8.53405 3.43187 8.00072C3.43187 7.46739 3.52521 6.95406 3.68521 6.47406V4.41406H1.03187C0.485208 5.49406 0.171875 6.70739 0.171875 8.00072C0.171875 9.29405 0.485208 10.5074 1.03187 11.5874L3.68521 9.52739Z" fill="white"/>
<path d="M8.17125 3.16667C9.35125 3.16667 10.4046 3.57334 11.238 4.36667L13.518 2.08667C12.1379 0.793334 10.3313 0 8.17125 0C5.04459 0 2.34459 1.8 1.03125 4.41334L3.68459 6.47334C4.31792 4.57334 6.08459 3.16667 8.17125 3.16667Z" fill="white"/>
</g>
<defs>
<clipPath id="clip0_3081_454">
<rect width="16" height="16" fill="white"/>
</clipPath>
</defs>
</svg>
