<svg width="16" height="16" viewBox="0 0 16 16" fill="none" xmlns="http://www.w3.org/2000/svg">
<path d="M15.983 2.55668C15.7594 4.90826 14.618 10.4615 14.0692 13.0978C13.861 14.2122 13.4508 14.5859 13.0537 14.6224C12.3341 14.6886 11.5244 14.1082 10.6974 13.5583C9.4323 12.7172 8.81902 12.3522 7.6136 11.425C6.81331 10.8093 7.29565 10.2118 8.10569 9.31788C8.30503 9.09791 11.7376 5.33545 11.9418 5.11255C12.0018 5.04701 11.985 4.78359 11.9103 4.75059C11.8773 4.736 11.6792 4.75691 11.5919 4.81767C11.5045 4.87843 9.46477 6.41728 5.38344 8.90708C4.76921 9.28179 4.2533 9.51318 3.772 9.50278C3.24142 9.49133 2.36847 9.30113 1.60972 9.05425C0.67913 8.75154 -0.0605018 8.59149 0.00391039 8.07733C0.0274569 7.88938 0.509806 7.70361 1.20513 7.40414C5.5455 5.53477 6.87949 4.8331 9.71712 3.63661C12.5547 2.44012 14.5908 1.63845 14.9769 1.49168C15.3629 1.3449 15.5532 1.37816 15.7219 1.46423C15.8906 1.55029 15.9654 1.77248 15.983 1.9285C16.0132 2.12222 15.9966 2.36108 15.983 2.55668Z" fill="white"/>
</svg>
