<svg width="104" height="40" viewBox="0 0 104 40" fill="none" xmlns="http://www.w3.org/2000/svg">
<path d="M6.13281 32.9892L13.49 28.0851L17.572 32.9892H24.5257V8.46875H23.2882V31.7632H18.3947L6.13281 15.8249V32.9892Z" fill="#1AAA11"/>
<path d="M18.3929 8.46875L11.0357 13.3728L7.07441 8.46875H0V32.9892H1.22619V9.69477H6.13095L18.3929 25.633V8.46875Z" fill="#1AAA11"/>
<path d="M93.4141 12.7414H95.188C95.5291 13.2211 96.1773 13.3632 96.9391 13.3632C97.6555 13.3632 98.315 13.1678 98.315 12.7769C98.315 12.5016 98.0876 12.2351 97.1779 12.1729L95.9271 12.0841C94.301 11.9686 93.6529 11.2669 93.6529 10.3697C93.6529 9.27709 94.8355 8.46875 96.7003 8.46875C98.5993 8.46875 99.7705 9.33039 100.134 10.3164H98.3605C98.1445 9.92554 97.3826 9.70347 96.689 9.70347C96.0181 9.70347 95.4154 9.90777 95.4154 10.3075C95.4154 10.5651 95.6997 10.8138 96.3819 10.8671L97.6783 10.9648C99.1679 11.0803 100.078 11.7554 100.078 12.7059C100.078 13.7008 99.0087 14.5979 96.9391 14.5979C94.9492 14.5979 93.8234 13.8695 93.4141 12.7414Z" fill="#F1F1F1"/>
<path d="M89.6377 11.496L93.106 14.4451H90.809L88.2505 12.2599V14.4451H86.4766V8.54688H88.2505V10.8209L90.9454 8.54688H93.106L89.6377 11.496Z" fill="#F1F1F1"/>
<path d="M83.0773 8.54688H84.8512V14.4451H82.9408L79.7114 10.6699V14.4451H77.9375V8.54688H79.8479L83.0773 12.3221V8.54688Z" fill="#F1F1F1"/>
<path d="M76.2963 8.54688V14.4451H74.5234V8.54688H76.2963Z" fill="#F1F1F1"/>
<path d="M69.7973 8.54688V13.2104H73.4361V14.4451H68.0234V8.54688H69.7973Z" fill="#F1F1F1"/>
<path d="M66.434 10.4034C66.434 11.2206 65.8996 11.949 64.7624 12.2066L66.9457 14.4451H64.7397L62.636 12.2777H61.7036V14.4451H59.9297V8.54688H63.7618C65.5925 8.54688 66.434 9.40851 66.434 10.4034ZM64.6601 10.4034C64.6601 10.0481 64.2962 9.78159 63.6253 9.78159H61.7036V11.0518H63.6253C64.2962 11.0518 64.6601 10.7587 64.6601 10.4034Z" fill="#F1F1F1"/>
<path d="M58.483 9.78159H54.8442V10.8742H58.4034V12.1H54.8442V13.2104H58.483V14.4451H53.0703V8.54688H58.483V9.78159Z" fill="#F1F1F1"/>
<path d="M51.8481 10.4034C51.8481 11.416 51.0066 12.2777 49.1758 12.2777H47.1177V14.4451H45.3438V8.54688H49.1758C51.0066 8.54688 51.8481 9.40851 51.8481 10.4034ZM50.0742 10.4034C50.0742 10.0481 49.7103 9.78159 49.0394 9.78159H47.1177V11.0518H49.0394C49.7103 11.0518 50.0742 10.7587 50.0742 10.4034Z" fill="#F1F1F1"/>
<path d="M40.6617 11.0163L42.5948 8.54688H44.5393L41.5486 12.4376V14.4451H39.7747V12.4376L36.75 8.54688H38.7058L40.6617 11.0163Z" fill="#F1F1F1"/>
<path d="M35.942 14.4451H34.1681V12.1H30.9614V14.4451H29.1875V8.54688H30.9614V10.8742H34.1681V8.54688H35.942V14.4451Z" fill="#F1F1F1"/>
<path d="M100.055 19.6608H91.8747V23.8179H99.8903V26.1506H91.8747V30.3309H100.055V32.6635H89.2891V17.3281H100.055V19.6608Z" fill="#F1F1F1"/>
<path d="M80.0469 19.3405C76.9206 19.3405 74.5935 21.7424 74.5935 24.9757C74.5935 28.2091 76.9206 30.611 80.0469 30.611C81.8334 30.611 83.2437 29.8258 84.1369 28.6248H86.9812C85.7354 31.2115 83.3142 32.9437 80.0469 32.9437C75.4867 32.9437 72.0078 29.5255 72.0078 24.9757C72.0078 20.4259 75.4867 17.0078 80.0469 17.0078C83.3142 17.0078 85.7354 18.7631 86.9812 21.3498H84.1369C83.2437 20.1488 81.8334 19.3405 80.0469 19.3405Z" fill="#F1F1F1"/>
<path d="M59.5513 29.1992L57.9999 32.6635H55.3438L62.1605 17.3281H64.8167L71.6335 32.6635H68.8833L67.3319 29.1992H59.5513ZM66.2976 26.8665L63.4533 20.4691L60.5856 26.8665H66.2976Z" fill="#F1F1F1"/>
<path d="M56.264 21.9472C56.264 24.4415 54.6186 26.5663 50.9516 26.5663H46.0154V32.6635H43.4297V17.3281H50.9516C54.6186 17.3281 56.264 19.4529 56.264 21.9472ZM53.6783 21.9472C53.6783 20.4922 52.5971 19.6608 50.8576 19.6608H46.0154V24.2337H50.8576C52.5971 24.2337 53.6783 23.4022 53.6783 21.9472Z" fill="#F1F1F1"/>
<path d="M27.9453 28.6248H30.6485C31.3537 29.9182 32.9521 30.611 34.8561 30.611C37.0422 30.611 38.5466 29.6872 38.5466 28.3477C38.5466 27.0774 37.6063 26.4307 35.5613 26.2229L32.8581 25.9457C29.7083 25.6455 28.3684 23.9364 28.3684 21.7193C28.3684 18.9478 30.719 17.0078 34.48 17.0078C38.335 17.0078 40.5211 19.2481 41.2262 21.3498H38.4995C37.9354 20.1488 36.2665 19.3405 34.433 19.3405C32.1764 19.3405 30.9541 20.4028 30.9541 21.6269C30.9541 22.8279 31.9178 23.4976 33.5398 23.6593L36.431 23.9595C39.3693 24.2598 41.1322 25.8996 41.1322 28.2322C41.1322 30.6341 39.0167 32.9437 34.8561 32.9437C30.7425 32.9437 28.6975 30.8882 27.9453 28.6248Z" fill="#F1F1F1"/>
<path d="M102.773 7.45167C102.096 7.45167 101.547 6.90284 101.547 6.22583C101.547 5.54882 102.096 5 102.773 5C103.45 5 103.999 5.54882 103.999 6.22583C103.999 6.90284 103.45 7.45167 102.773 7.45167Z" fill="#F1F1F1"/>
</svg>
