<svg width="30" height="30" viewBox="0 0 30 30" fill="none" xmlns="http://www.w3.org/2000/svg">
<g clip-path="url(#clip0_2183_514)">
<rect width="30" height="30" rx="15" fill="#F12323"/>
<path d="M21.7863 6.51803C22.3267 7.90684 22.8102 9.46081 23.237 11.1799L20.812 11.7549C20.47 10.555 20.0606 9.3543 19.5838 8.15267C19.1176 6.91482 18.6287 5.78348 18.1171 4.75866L20.0858 2.62325C20.6973 3.82665 21.2641 5.12491 21.7863 6.51803Z" fill="#1AFF11"/>
<path d="M8.35741 23.5567C7.80043 21.9359 7.28433 20.2042 6.8091 18.3617L9.2341 17.7867C9.63819 19.4101 10.1664 21.0715 10.8187 22.7708C11.4817 24.434 12.1038 25.8034 12.685 26.8791L10.0148 27.5123C9.45927 26.4641 8.90682 25.1456 8.35741 23.5567Z" fill="#1AFF11"/>
<path d="M16.2773 20.6676C16.8843 21.7709 17.4693 22.6603 18.0323 23.3359C18.606 23.9752 19.1926 24.426 19.792 24.6884C20.3838 24.9189 21.0067 24.9566 21.6607 24.8015C22.5507 24.5905 23.2228 24.0266 23.677 23.1099C24.1418 22.157 24.3984 20.9332 24.4469 19.4384C24.4878 17.9118 24.3214 16.1984 23.9476 14.2981L21.4953 14.8796C21.6936 15.8776 21.7813 16.7332 21.7586 17.4465C21.7465 18.1236 21.6458 18.6699 21.4565 19.0856C21.2597 19.4694 20.9797 19.7043 20.6164 19.7904C20.2168 19.8852 19.8285 19.8256 19.4516 19.6115C19.0929 19.3932 18.7288 18.9907 18.3595 18.4041C17.9902 17.8175 14.1873 9.4659 13.4396 8.09254C12.6919 6.71919 11.9237 5.70464 11.1351 5.04888C10.3647 4.38882 9.49806 4.17292 8.53533 4.40119C7.24563 4.70698 6.3926 5.80254 5.97625 7.68786C5.55233 9.54127 5.62034 12.0534 6.18028 15.2241L8.60528 14.6492C8.32077 12.9637 8.26406 11.7131 8.43515 10.8972C8.61683 10.0451 8.98922 9.55226 9.55233 9.41874C9.93379 9.3283 10.2986 9.41035 10.6467 9.6649C10.9873 9.88753 11.3408 10.3262 11.707 10.981C12.0733 11.6358 15.6703 19.5642 16.2773 20.6676Z" fill="#1AFF11"/>
<path d="M3.98201 19.0331L3.2442 15.9213L12.9714 13.615L14.3359 16.5781L3.98201 19.0331Z" fill="#1111FF"/>
<path d="M26.2422 13.7578L23.9534 14.3005L21.5012 14.8819L17.1689 15.9091L15.8044 12.946L20.8179 11.7573L23.2429 11.1823L25.5044 10.6461L26.2422 13.7578Z" fill="#1111FF"/>
</g>
<defs>
<clipPath id="clip0_2183_514">
<rect width="30" height="30" fill="white"/>
</clipPath>
</defs>
</svg>
