<svg width="1000" height="1000" viewBox="0 0 1000 1000" fill="none" xmlns="http://www.w3.org/2000/svg">
<g clip-path="url(#clip0_1_22)">
<path d="M596.922 328.798C595.757 325.285 588.733 305.43 567.598 257.787C559.898 240.427 538.804 230.034 514.157 218.279C502.153 212.555 489.51 211.184 473.308 209.984C457.107 208.784 437.304 208.784 418.658 209.949C400.012 211.114 383.122 213.444 360.443 219.012C337.764 224.58 309.808 233.316 285.214 243.932C260.62 254.548 240.235 266.779 223.91 278.613C207.585 290.446 195.936 301.512 185.859 312.163C166.977 332.12 155.732 350.488 151.311 367.202C146.288 386.192 161.503 408.695 179.964 429.538C189.667 440.494 204.832 447.47 220.477 454.291C236.123 461.112 253.013 466.354 271.907 469.637C290.8 472.919 311.185 474.084 329.257 473.811C347.33 473.537 362.473 471.79 378.427 468.56C394.382 465.33 410.69 460.671 428.118 453.611C445.547 446.552 463.601 437.233 481.639 423.405C499.676 409.577 517.149 391.522 528.771 376.979C540.392 362.437 545.634 351.953 547.461 341.602C550.98 321.658 537.586 295.423 515.04 263.152C502.48 245.175 480.262 229.716 461.025 216.938C441.787 204.16 424.315 196.006 405.121 189.476C385.928 182.946 365.544 178.287 346.015 175.886C326.486 173.486 308.431 173.486 273.504 181.058C238.576 188.629 187.324 203.772 143.448 220.6C99.5728 237.429 64.6277 255.484 31.1917 277.889C-2.24442 300.294 -33.1126 326.503 -65.0308 358.933C-96.9491 391.363 -128.982 429.22 -141.989 458.333C-154.997 487.445 -148.008 506.664 -138.583 520.351C-129.159 534.038 -117.51 541.609 -96.3666 547.548C-75.2231 553.487 -44.9374 557.564 -1.37962 555.296C42.1782 553.028 98.0903 544.292 154.85 523.193C211.609 502.093 267.521 468.895 309.137 439.563C350.754 410.23 376.38 385.769 397.735 362.684C419.091 339.599 435.398 318.632 447.585 298.512C459.772 278.392 467.343 259.755 472.117 244.329C480.351 217.726 477.527 190.694 469.329 162.517C461.264 134.798 438.187 114.75 412.11 98.0101C397.578 88.681 376.133 85.3469 353.692 83.229C331.251 81.1112 307.372 82.276 284.879 87.2442C262.385 92.2124 242 100.949 222.181 112.438C202.361 123.928 183.723 137.906 167.133 154.425C150.543 170.945 136.565 189.582 127.326 203.842C112.602 226.569 108.062 254.495 107.162 286.502C106.432 312.457 123.258 331.657 146.096 351.291C160.23 363.443 181.747 377.332 200.41 387.454C219.074 397.576 234.8 402.818 253.093 406.683C271.386 410.548 291.771 412.877 310.717 412.33C329.663 411.783 346.553 408.289 366.029 399.791C385.505 391.293 407.054 377.897 423.397 364.881C439.74 351.865 450.224 339.634 461.157 320.811C472.091 301.989 483.157 276.945 490.022 249.483C496.888 222.021 499.217 192.9 498.67 170.327C498.123 147.754 494.628 132.611 486.422 116.074C478.215 99.5368 465.402 82.0642 442.784 69.5687C420.167 57.0732 388.134 50.0842 359.402 48.231C330.669 46.3779 306.208 49.8724 285.161 54.8759C264.115 59.8794 247.224 66.286 229.205 75.993C211.185 85.6999 192.548 98.5131 180.617 109.191C161.916 125.928 157.479 149.236 156.87 175.931C156.553 189.854 162.086 204.372 169.136 217.697C176.187 231.022 186.088 242.67 200.799 254.495C215.509 266.32 234.729 277.968 248.707 284.551C269.921 294.542 290.888 291.17 312.614 284.437C323.119 281.181 330.846 273.627 340.288 261.881C349.73 250.136 360.214 233.246 367.07 216.1C373.927 198.954 376.839 182.064 377.174 166.374C377.51 150.684 375.18 136.706 366.117 118.148C357.054 99.5897 341.329 76.8754 319.25 60.2236C297.171 43.5717 269.215 33.6706 241.127 26.5316C213.038 19.3925 185.665 15.3156 159.332 14.3802C133 13.4448 108.538 15.7745 76.4261 21.3428C44.3137 26.911 5.29171 35.6473 -23.2556 43.6423C-51.8029 51.6373 -68.693 58.6263 -84.6742 67.4685C-116.299 84.9659 -137.206 106.332 -148.961 123.645C-154.472 131.763 -156.056 140.377 -154.344 150.401C-150.481 173.02 -130.323 192.229 -103.082 206.622C-87.2717 214.976 -63.6101 216.938 -42.8813 217.582C-22.1525 218.226 -4.09757 215.314 13.9397 209.737C31.977 204.16 49.4496 196.006 66.022 185.108C82.5944 174.21 97.7373 160.814 110.198 143.139C122.658 125.463 131.976 103.914 137.651 86.1147C147.39 55.5642 145.707 33.5471 139.283 15.3774C129.924 -11.0922 106.95 -27.0773 83.2386 -33.8457C68.1417 -38.1551 44.9667 -35.3724 22.7819 -30.9954C0.597071 -26.6185 -20.37 -18.4646 -39.9074 -9.31359C-59.4449 -0.162572 -76.9174 9.73853 -89.7041 18.3336C-110.982 32.6363 -121.94 49.2723 -128.7 67.742C-136.561 89.2213 -132.582 108.132 -125.576 122.189C-120.858 131.654 -109.25 143.236 -97.152 153.322C-85.0536 163.409 -71.658 170.98 -56.3122 176.628C-40.9664 182.275 -24.0763 185.77 -3.43573 186.696C17.2048 187.623 41.0839 185.876 63.5776 182.064C86.0713 178.251 106.456 172.427 125.402 163.894C144.348 155.361 161.238 144.295 173.725 132.479C196.47 110.955 202.167 83.5997 202.467 63.9034C202.58 56.4334 201.019 54.1082 199.254 52.3256C195.705 48.7405 185.188 48.7605 169.057 51.6814C127.638 59.1813 109.244 95.1774 105.423 107.796C101.884 119.486 113.233 140.977 138.727 170.327C152.281 185.931 172.957 197.348 188.391 205.987C214.04 220.343 234.447 223.486 259.614 217.088C277.437 212.557 302.254 195.547 320.406 180.766C338.558 165.985 348.459 151.425 355.598 137.517C368.832 111.737 370.432 83.0349 368.385 58.644C367.554 48.7397 364.59 44.1541 361.061 41.1714C354.049 35.2467 332.928 39.3183 302.995 48.9811C287.746 53.904 274.228 63.8857 251.884 86.15C229.54 108.414 199.254 143.942 181.323 168.068C163.392 192.194 158.732 203.842 157.788 215.667C156.844 227.492 159.756 239.141 169.992 251.839C180.229 264.537 197.701 277.933 227.087 285.999C256.473 294.064 297.242 296.394 328.145 293.517C359.049 290.64 378.851 282.486 396.041 271.006C413.231 259.525 427.209 244.965 436.74 232.805C452.619 212.543 456.312 195.318 455.156 184.737C454.255 176.487 429.415 175.851 396.562 176.125C379.374 176.268 361.378 181.64 327.907 195.68C294.436 209.72 246.095 233.599 209.835 255.801C173.575 278.004 150.861 297.806 135.665 312.666C120.469 327.527 113.48 336.845 107.55 349.8C94.5975 378.095 92.1602 407.512 96.8195 433.315C99.4676 447.98 110.798 463.777 125.79 476.255C140.783 488.733 161.168 496.887 180.405 501.378C199.643 505.87 217.115 506.453 240.968 502.676C264.821 498.899 294.524 490.745 317.688 481.012C340.853 471.278 356.578 460.212 368.464 450.435C388.9 433.625 399.8 415.948 407.142 398.352C415.112 379.252 412.808 361.801 406.948 351.229C401.316 341.067 385.805 337.64 365.588 336.74C353.507 336.202 337.799 341.081 323.292 347.25C308.784 353.418 295.971 362.154 282.09 377.138C268.209 392.122 253.649 413.089 243.527 430.879C226.077 461.551 221.598 488.115 220.416 512.744C219.765 526.292 221.563 542.033 226.24 557.414C230.917 572.795 239.071 587.356 249.095 597.769C259.12 608.182 270.768 614.006 287.835 618.753C304.902 623.501 327.033 626.995 350.083 628.213C373.133 629.431 396.429 628.266 426.194 621.842C455.959 615.418 491.487 603.769 522.02 586.994C552.553 570.219 577.014 548.669 593.692 531.744C610.371 514.818 618.525 503.17 624.181 489.015C635.924 459.63 634.585 432.433 629.908 416.857C627.845 409.986 620.572 407.689 613.203 407.645C605.835 407.6 597.099 410.513 575.417 427.447C553.735 444.381 519.372 475.249 493.225 503.673C467.078 532.097 450.188 557.141 440.031 579.069C429.874 600.998 426.962 619.053 427.792 633.014C428.621 646.974 433.281 656.293 444.999 670.703C456.718 685.114 475.356 704.333 492.237 718.311C509.118 732.289 523.679 740.443 543.702 746.391C563.724 752.339 588.768 755.833 612.153 755.595C635.538 755.357 656.505 751.28 685.361 737.822C714.218 724.365 750.328 701.651 777.375 681.213C804.422 660.776 821.312 643.303 832.051 629.643C848.95 608.148 851.068 583.085 848.738 557.246C847.653 545.209 841.749 536.068 833.234 530.102C824.718 524.137 812.487 521.807 793.956 526.431C775.424 531.055 750.963 542.704 721.18 563.847C691.397 584.991 657.035 615.276 634.965 641.362C612.895 667.447 604.158 688.414 599.367 709.116C594.575 729.819 593.992 749.621 598.934 768.558C603.876 787.496 614.359 804.968 624.711 818.628C635.062 832.289 644.963 841.607 659.091 848.738C673.219 855.868 691.274 860.527 710.476 858.851C729.678 857.174 749.48 849.02 766.67 837.248C783.861 825.476 797.839 810.333 806.204 797.873C819.729 777.729 819.3 749.021 818.135 716.432C817.593 701.28 814.641 689.085 811.111 681.037C807.581 672.989 802.922 669.494 795.571 667.403C778.779 662.625 755.305 672.865 731.522 692.8C719.509 702.869 711.817 717.394 706.734 731.866C696.705 760.423 701.034 786.984 708.632 811.887C713.331 827.288 724.383 846.69 738.511 863.589C766.861 897.499 796.286 908.268 812.117 907.694C831.853 906.979 853.31 888.977 872.697 864.339C891.364 840.617 892.243 815.981 891.378 803.936C891.002 798.69 886.437 795.967 880.56 793.593C867 788.117 843.567 792.331 816.847 802.594C804.348 807.395 795.368 814.604 784.743 829.844C774.118 845.084 762.47 868.963 757.052 887.38C751.634 905.797 752.798 918.028 755.728 928.697C761.246 948.789 782.678 968.751 809.399 987.274C828.42 1000.46 856.786 993.036 888.775 981.608C920.779 970.175 940.425 950.114 950.714 938.068C954.855 933.221 955.762 930.1 954.906 925.979C954.05 921.858 951.138 916.616 944.979 911.295C938.819 905.973 929.5 900.732 918.293 899.779C907.086 898.826 894.273 902.32 879.81 911.109C865.346 919.899 849.621 933.877 839.482 946.902C829.342 959.927 825.265 971.575 824.039 984.565C821.503 1011.42 837.425 1038.75 859.143 1059.62C875.94 1075.76 896.885 1073.59 913.299 1072.71C934.504 1071.58 956.274 1059.56 974.479 1039.33C994.155 1017.47 996.955 987.23 998.137 967.533C998.585 960.081 996.99 957.738 995.225 956.247C993.46 954.755 991.131 954.173 988.766 954.455C983.888 955.038 978.759 960.597 974.055 967.639C969.928 973.819 971.081 981.776 972.829 988.818C974.943 997.338 988.077 1001.21 1005.36 1003.56C1031.13 1007.08 1049.88 1000.08 1054.59 993.336C1057.01 989.869 1056.96 984.847 1053.48 978.37C1044.79 962.22 1024.72 953.008 1005.64 950.061C988.501 947.413 972.335 957.05 958.824 968.486C946.187 979.184 944.025 996.442 944.89 1011.12C945.317 1018.35 949.832 1024.63 955.127 1029.68C965.956 1040 986.26 1041.24 1010.61 1037.15C1038.13 1032.53 1059.24 1010.16 1074.51 989.03C1088.37 969.87 1089.33 953.608 1087.58 947.731C1086.74 944.899 1082.34 944.184 1076.76 944.457C1063.46 945.108 1038.91 962.256 1010.69 989.55C988.813 1010.72 988.73 1031.78 989.313 1039.41C989.587 1043 991.06 1045.88 996.028 1048.54C1001 1051.21 1009.73 1053.54 1021.51 1051.24C1033.29 1048.95 1047.85 1041.96 1058.85 1021.18C1069.85 1000.4 1076.83 966.033 1075.19 939.886C1073.55 913.739 1063.07 896.849 1049.8 884.071C1036.54 871.293 1020.82 863.139 999.611 860.104C978.406 857.068 952.197 859.398 924.135 866.422C896.073 873.446 866.952 885.095 858.357 892.551C849.762 900.008 862.575 902.92 875.874 904.712C889.172 906.503 902.568 907.085 917.914 901.561C933.26 896.037 950.15 884.389 963.51 869.943C976.87 855.497 986.189 838.607 992.154 821.752C998.12 804.898 1000.45 788.59 999.902 766.502C999.355 744.414 995.861 717.041 988.819 692.456C981.777 667.871 971.293 646.903 958.612 625.619C945.932 604.334 931.371 583.367 914.843 564.412C898.315 545.457 880.26 529.149 862.513 516.963C844.767 504.776 827.877 497.205 811.896 491.266C781.767 480.069 756.452 475.884 739.994 475.576C733.383 475.452 730.525 479.344 728.443 483.465C726.36 487.586 725.195 492.828 727.799 501.643C734.282 523.6 756.805 546.357 785.255 565.162C799.376 574.496 816.617 576.978 834.046 578.205C851.474 579.431 869.529 577.684 888.44 572.125C907.351 566.565 926.571 557.246 945.499 540.506C964.428 523.766 982.483 499.887 992.949 477.393C1003.41 454.9 1005.74 434.515 1002.58 406.541C999.408 378.568 990.672 343.623 978.891 315.72C967.11 287.817 952.55 268.014 935.439 251.115C918.328 234.216 899.109 220.821 880.471 211.299C861.834 201.778 844.361 196.536 828.08 193.544C811.799 190.553 797.239 189.97 787.699 191.418C778.16 192.865 774.083 196.359 770.527 205.148C766.971 213.938 764.058 227.916 765.47 245.309C766.882 262.702 772.706 283.087 781.24 301.159C789.773 319.232 800.839 334.375 814.402 346.544C827.966 358.713 843.691 367.449 862.566 371.949C881.442 376.45 902.992 376.45 921.082 370.043C939.172 363.637 953.15 350.824 963.554 336.651C973.958 322.479 980.365 307.336 981.336 284.684C982.306 262.031 977.647 232.328 970.879 209.455C964.11 186.582 955.374 171.439 940.099 155.484C924.823 139.529 903.274 123.222 883.145 113.656C863.016 104.09 844.962 101.761 828.089 103.181C811.217 104.602 796.074 109.844 784.487 117.786C772.901 125.728 765.329 136.211 763.176 156.172C761.023 176.133 764.517 205.254 772.433 229.866C780.349 254.477 792.579 273.697 813.44 288.258C834.302 302.818 863.422 312.137 889.781 314.608C916.14 317.079 938.854 312.419 961.33 302.448C983.806 292.476 1005.36 277.333 1023.74 255.845C1042.12 234.358 1056.68 206.984 1062.72 179.487C1068.77 151.99 1065.86 125.198 1057.37 100.913C1048.88 76.6283 1034.9 55.6613 1014.3 38.7447C993.708 21.8281 966.916 9.59734 930.983 5.91751C895.05 2.23769 850.786 7.47945 823.324 18.6248C795.862 29.7702 786.543 46.6603 783.199 64.3887C779.854 82.1172 782.766 100.172 788.926 117.627C795.085 135.082 804.404 151.39 817.067 168.236C829.73 185.082 845.456 201.972 858.216 213.585C870.976 225.198 880.295 231.022 894.705 237.517C909.116 244.012 928.336 251.001 944.934 253.436C961.533 255.872 974.929 253.542 988.819 246.518C1002.71 239.493 1016.69 227.845 1027.67 213.691C1038.66 199.536 1046.23 183.228 1049.55 164.053C1052.87 144.877 1051.7 123.328 1046.15 105.529C1040.6 87.7296 1030.7 74.3339 1019.19 64.8123C1007.69 55.2907 994.872 50.0489 978.662 48.8046C962.451 47.5604 943.231 50.4725 916.44 60.4177C889.649 70.3629 855.869 87.253 831.186 102.069C806.504 116.886 791.944 129.117 781.531 140.659C771.118 152.201 765.294 162.685 762.876 171.58C758.697 186.956 772.142 206.896 794.706 229.795C806.643 241.91 824.842 249.2 839.658 253.992C854.474 258.784 866.705 259.366 878.83 256.172C890.955 252.977 902.603 245.988 912.098 235.399C921.594 224.81 928.583 210.831 931.601 195.477C934.619 180.122 933.454 163.814 927.03 147.551C920.605 131.287 908.957 115.562 894.802 102.802C880.648 90.0416 864.34 80.7229 840.796 74.4663C817.253 68.2097 786.967 65.2977 754.184 69.3305C721.401 73.3633 687.038 84.4292 652.155 101.487C617.271 118.545 582.909 141.259 559.383 161.988C535.857 182.717 524.208 200.772 517.625 217.644C511.042 234.516 509.877 249.659 512.772 262.993C515.666 276.327 522.655 287.393 534.992 298.044C547.328 308.695 564.801 318.596 581.373 326.027C597.946 333.457 613.089 338.116 629.626 341.39C646.163 344.664 663.636 346.411 680.208 344.399C696.78 342.387 711.923 336.563 724.966 328.612C738.008 320.661 748.492 310.76 755.64 292.555C762.788 274.35 766.282 248.142 762.258 220.953C758.234 193.765 746.586 166.391 723.113 139.476C699.64 112.562 664.694 86.9353 635.918 71.4042C607.141 55.8731 585.592 51.2137 561.968 50.5607C538.345 49.9077 513.301 53.4022 488.169 62.4826C463.037 71.563 438.575 86.1235 416.655 102.943C394.735 119.763 376.098 138.4 365.332 152.078C354.566 165.756 352.236 173.91 352.783 183.643C353.33 193.377 356.825 204.443 364.74 217.132C372.656 229.822 384.887 243.8 401.089 255.369C417.29 266.938 437.093 275.674 459.233 280.466C481.374 285.257 505.253 285.84 538.522 277.695C571.79 269.55 613.724 252.66 645.228 233.475C676.731 214.291 696.533 193.324 709.646 172.621C722.76 151.919 728.584 132.117 730.128 113.179C731.672 94.242 728.76 76.7695 719.689 60.7795C710.617 44.7895 695.474 30.8115 676.316 20.9898C657.158 11.1681 634.444 5.92634 598.864 4.68208C563.283 3.43783 515.525 6.34992 467.625 16.2951C419.726 26.2404 373.133 43.1305 334.861 60.8589C296.589 78.5874 268.05 96.6423 245.777 114.388C223.504 132.134 208.361 149.025 197.648 166.462C186.935 183.899 181.111 201.372 181.023 220.274C180.935 239.176 186.759 258.978 197.622 272.674C208.485 286.369 224.21 293.358 243.668 298.124C263.126 302.889 285.841 305.218 310.064 305.545C334.287 305.871 359.331 304.124 387.958 295.07C416.584 286.016 448.035 269.709 473.556 250.242C499.076 230.775 517.713 208.643 529.644 189.379C541.575 170.115 546.234 154.39 547.761 133.476C549.288 112.562 547.54 86.9354 540.234 64.4152C532.927 41.895 520.114 23.2577 501.865 7.83244C483.615 -7.59281 460.319 -19.2412 432.301 -24.3682C404.283 -29.4952 372.25 -27.748 340.897 -19.5677C309.543 -11.3873 279.84 3.17309 249.687 24.652C219.533 46.1308 189.83 74.0869 165.792 100.428C141.754 126.769 124.281 150.648 112.951 170.812C101.62 190.976 96.9607 206.702 95.4341 228.781C93.9074 250.859 95.6547 278.816 103.253 305.448C110.85 332.08 124.246 356.542 146.581 381.665C168.916 406.789 199.784 431.833 237.235 443.86C274.686 455.888 317.785 454.141 350.471 443.34C383.157 432.538 404.124 412.736 418.129 390.887C432.133 369.037 438.54 345.741 436.307 327.915C434.075 310.09 423.009 298.441 408.863 291.276C394.717 284.11 377.827 281.781 344.956 288.734C312.085 295.688 263.744 311.996 219.621 336.413C175.499 360.831 137.059 392.863 106.482 428.294C75.9055 463.724 54.356 501.581 41.5075 531.567C28.659 561.553 25.1645 582.52 23.9467 606.134C22.7289 629.749 23.8938 655.375 27.9884 675.857C32.0829 696.338 39.0719 710.899 50.8262 723.933C62.5804 736.966 78.8881 748.032 99.5198 755.771C120.152 763.511 144.613 767.587 165.951 765.32C187.288 763.052 204.761 754.315 219.004 743.7C233.246 733.084 243.73 720.853 251.169 705.816C266.462 674.903 264.556 644.238 256.367 622.23C252.038 610.597 241.189 600.804 222.119 595.404C203.049 590.003 174.511 590.003 138.842 599.322C103.173 608.64 61.2391 627.278 28.862 645.324C-3.51514 663.37 -25.0646 680.26 -41.1164 694.785C-57.1682 709.31 -67.0693 720.959 -73.9171 734.24C-80.7649 747.521 -84.2594 762.081 -84.8948 778.027C-85.5301 793.973 -83.2005 810.863 -73.2641 830.047C-63.3277 849.232 -45.8552 870.199 -26.0794 884.203C-6.30369 898.208 15.2458 904.614 41.4899 905.003C67.7339 905.391 98.0197 899.567 132.841 886.665C167.663 873.764 206.102 853.962 233.476 831.53C260.85 809.098 275.992 784.636 286.705 760.678C297.418 736.719 303.242 714.005 305.369 692.694C307.496 671.383 305.749 652.163 301.063 634.108C296.377 616.053 288.806 599.745 276.46 586.394C264.115 573.042 247.225 563.141 228.622 557.167C210.02 551.193 190.218 549.446 170.116 550.584C150.014 551.722 130.211 555.799 110.692 565.18C91.1719 574.56 72.5345 589.121 57.4005 611.473C42.2664 633.826 31.2005 663.529 24.9174 688.44C18.6344 713.352 17.4695 732.572 19.4904 751.792C21.5112 771.011 26.7529 789.649 37.0247 806.239C47.2964 822.829 62.4392 836.807 77.2291 847.793C92.019 858.78 105.997 866.351 119.896 870.252C133.794 874.152 147.19 874.152 161.662 870.367C176.134 866.581 191.277 859.009 205.776 843.169C220.274 827.329 233.67 803.45 241.444 779.209C249.219 754.968 250.966 731.089 246.624 708.304C242.283 685.52 231.799 664.553 217.954 645.015C204.108 625.478 187.218 608.005 171.237 596.383C155.255 584.761 140.695 579.52 116.013 581.187C91.3307 582.855 56.968 591.591 29.365 603.372C1.76191 615.153 -18.0403 629.713 -41.0546 653.231C-64.0689 676.748 -89.6953 708.781 -104.644 739.843C-119.593 770.906 -123.087 800.026 -116.734 826.094C-110.38 852.162 -94.0723 874.294 -77.5175 892.393C-60.9627 910.492 -44.655 923.887 -25.1881 933.7C-5.72127 943.513 16.4106 949.337 40.0426 950.881C63.6747 952.426 88.1362 949.514 122.287 933.744C156.438 917.975 199.537 889.436 227.563 864.834C255.59 840.231 267.238 820.429 274.695 795.376C282.152 770.323 285.064 740.62 284.526 718.911C283.987 697.203 279.91 684.39 271.986 674.004C264.062 663.617 252.413 656.046 236.803 651.272C221.192 646.498 201.972 644.75 174.89 649.674C147.808 654.598 113.445 666.247 87.5891 677.78C61.7333 689.314 45.4256 700.38 33.5302 716.273C21.6347 732.166 14.6457 752.551 13.375 780.524C12.1042 808.498 16.7636 843.443 28.1913 877.753C39.6191 912.062 57.674 944.678 74.8377 966.721C92.0014 988.765 107.727 999.249 123.399 1005.81C139.071 1012.38 154.214 1014.71 168.13 1012.12C182.047 1009.54 194.277 1001.97 207.276 987.583C220.274 973.199 233.67 952.232 243.483 928.326C253.296 904.42 259.12 878.212 259.791 839.084C260.461 799.956 255.802 748.703 244.374 700.459C232.946 652.216 214.891 608.535 189.865 567.686C164.839 526.837 133.388 490.145 106.412 467.166C79.4352 444.187 57.8858 436.033 37.7571 432.997C17.6284 429.962 -0.426563 432.291 -20.7935 441.063C-41.1605 449.835 -63.2924 464.977 -80.2266 482.679C-97.1609 500.381 -108.227 520.184 -115.092 539.412C-121.958 558.641 -124.287 576.696 -118.499 605.508C-112.71 634.32 -98.7316 673.342 -78.7176 706.548C-58.7036 739.755 -33.0773 765.964 -6.48018 784.416C20.1169 802.868 46.9081 812.769 75.8525 816.705C104.797 820.64 135.083 818.311 170.487 809.539C205.89 800.768 245.495 785.625 281.04 760.934C316.585 736.243 346.871 702.463 370.918 669.335C394.964 636.208 411.855 604.758 421.72 574.869C431.586 544.98 433.916 517.607 431.913 499.719C429.909 481.832 423.503 474.261 413.214 468.613C402.924 462.965 388.946 459.471 361.07 465.533C333.193 471.596 291.841 487.321 255.978 505.905C220.116 524.49 190.995 545.457 167.257 567.906C143.519 590.356 126.046 613.653 110.348 646.621C94.6487 679.589 81.2531 721.524 74.6435 760.016C68.034 798.509 68.6164 832.289 72.7021 864.542C76.7879 896.796 84.3593 926.499 94.6664 951.12C104.973 975.74 117.787 994.377 141.277 1010.68C164.768 1026.98 198.549 1040.37 227.308 1044.07C256.067 1047.77 278.781 1041.36 302.713 1027.87C326.645 1014.37 351.107 993.989 372.153 965.724C393.2 937.459 410.09 901.932 420.538 869.652C430.986 837.372 434.481 809.416 433.951 783.075C433.422 756.733 428.762 732.854 419.373 712.981C409.984 693.109 396.006 677.966 375.701 668.126C355.395 658.287 329.187 654.21 295.009 660.846C260.832 667.482 219.48 684.955 191.189 700.945C162.897 716.935 148.919 730.913 137.933 746.267C126.946 761.622 119.375 777.93 114.601 799.144C109.827 820.358 108.08 845.984 110.092 867.922C112.104 889.86 117.928 907.332 126.752 923.614C135.577 939.895 147.225 954.455 166.621 966.907C186.018 979.358 212.809 989.259 237.385 991.156C261.961 993.054 283.511 986.647 305.969 976.067C328.428 965.486 351.142 950.926 371.288 930.32C391.435 909.715 408.325 883.506 419.938 858.939C431.551 834.371 437.375 812.24 439.793 791.811C442.211 771.382 441.046 753.327 435.495 738.202C429.945 723.077 420.044 711.428 405.333 706.301C390.623 701.174 371.403 702.921 346.65 715.179C321.898 727.436 292.194 750.15 266.409 776.121C240.624 802.091 219.657 830.63 206.526 861.057C193.395 891.484 188.736 922.934 190.995 956.609C193.254 990.283 202.572 1025.23 214.362 1050.8C226.152 1076.37 240.13 1091.52 253.446 1102.52C266.762 1113.53 278.993 1119.93 295.486 1121.78C311.979 1123.62 332.363 1120.71 352.766 1111.35C373.168 1101.98 392.97 1086.26 414.237 1054.86C435.504 1023.46 457.636 976.87 471.076 939.18C484.516 901.491 488.592 874.117 486.325 842.252C484.057 810.386 475.32 774.859 460.336 747.238C445.352 719.617 424.385 700.98 398.15 690.214C371.915 679.448 341.047 677.119 303.595 685.237C266.144 693.356 223.045 711.993 184.826 732.369C146.607 752.745 114.574 774.294 79.4353 806.071C44.2961 837.848 7.02132 879.2 -15.3841 917.101C-37.7895 955.002 -44.1961 988.2 -34.3921 1018.99C-24.5881 1049.78 1.62072 1077.15 31.4299 1088.05C61.2391 1098.95 93.8545 1092.54 117.645 1079.63C141.436 1066.72 155.414 1047.5 161.741 1027.99C168.069 1008.48 166.321 989.259 158.141 972.66C149.961 956.061 135.4 942.666 115.377 931.106C95.3547 919.546 70.3107 910.227 39.9367 908.047C9.56277 905.868 -25.3823 911.109 -53.5766 920.216C-81.7709 929.323 -102.156 942.136 -118.19 956.017C-134.224 969.898 -145.29 984.459 -149.534 998.948C-153.779 1013.44 -150.867 1027.42 -142.378 1041.61C-133.888 1055.8 -119.91 1069.77 -97.5668 1081.05C-75.2231 1092.33 -44.9374 1100.48 -10.6983 1102.94C23.5408 1105.39 60.8155 1101.9 110.595 1085.83C160.374 1069.76 221.528 1041.22 272.542 1009.04C323.557 976.87 362.579 941.925 390.835 909.945C419.091 877.964 435.398 850.008 446.129 823.085C456.86 796.161 461.519 771.117 462.172 751.518C462.825 731.919 459.33 718.523 449.959 708.419C440.587 698.315 425.444 691.909 405.995 690.355C386.546 688.802 363.249 692.297 329.99 702.833C296.73 713.37 254.214 730.842 224.157 748.58C194.101 766.317 177.793 783.789 165.024 807.933C152.255 832.077 143.519 862.363 141.348 891.069C139.177 919.775 143.837 945.984 153.226 972.881C162.615 999.778 176.593 1026.57 197.481 1048.23C218.368 1069.9 245.742 1085.62 273.239 1093.72C300.736 1101.82 327.528 1101.82 366.373 1093.96C405.219 1086.1 455.306 1070.37 513.142 1038.1C570.978 1005.83 635.044 957.491 679.987 916.863C724.931 876.235 748.81 844.784 766.935 814.313C785.061 783.842 796.709 755.304 802.127 730.992C807.546 706.681 806.381 687.461 796.462 668.532C786.543 649.604 767.906 631.549 745.783 620.209C723.66 608.87 698.616 604.793 664.456 609.682C630.296 614.57 587.78 628.549 553.647 644.486C519.514 660.423 495.052 677.895 475.753 699.418C456.454 720.941 443.058 745.985 435.284 768.205C427.509 790.425 425.762 809.063 428.356 832.933C430.951 856.803 437.94 885.342 449.985 909.071C462.031 932.8 478.921 950.855 500.144 965.98C521.367 981.105 546.411 992.754 580.279 998.172C614.148 1003.59 656.082 1002.43 697.486 995.419C738.891 988.412 778.495 975.599 814.04 957.059C849.586 938.518 879.871 914.639 903.336 886.612C926.8 858.586 942.525 827.135 950.626 802.488C958.727 777.842 958.727 760.951 954.068 742.058C949.408 723.165 940.09 702.78 917.526 686.746C894.961 670.712 859.434 659.646 808.516 665.594C757.599 671.542 692.368 694.838 650.028 726.059C607.688 757.28 590.216 795.72 587.039 828.044C583.862 860.368 595.51 885.412 612.577 906.176C629.644 926.941 651.775 942.666 673.369 952.514C694.963 962.362 715.347 965.857 744.194 964.745C773.042 963.633 809.734 957.809 845.235 945.781C880.736 933.753 913.934 915.698 943.558 891.545C973.182 867.393 998.226 837.689 1011.71 815.69C1025.19 793.69 1026.36 780.295 1017.64 760.581C1008.92 740.867 990.284 715.241 965.831 698.545C941.378 681.849 911.675 674.86 879.483 673.589C847.291 672.318 813.511 676.977 773.686 693.647C733.861 710.316 689.015 738.855 654.846 766.078C620.678 793.302 598.546 818.346 582.194 844.643C565.842 870.94 555.941 897.731 550.841 924.346C545.74 950.961 545.74 976.587 550.399 1004.06C555.059 1031.53 564.377 1060.07 585.194 1080.59C606.011 1101.12 638.044 1112.77 697.063 1089.94C756.081 1067.11 841.114 1009.45 888.705 964.604C936.295 919.757 943.867 889.472 943.981 859.892C944.096 830.312 936.525 802.356 925.635 782.13C914.746 761.905 900.768 750.256 877.842 742.508C854.916 734.76 823.465 731.266 792.12 733.251C760.776 735.237 730.49 742.808 703.531 753.406C676.572 764.005 653.858 777.4 639.536 790.125C625.214 802.85 619.972 814.499 617.563 833.021C615.154 851.544 615.736 876.588 625.355 900.846C634.974 925.105 653.611 947.819 682.141 972.043C710.67 996.266 748.527 1021.31 791.909 1036.25C835.29 1051.19 883.048 1055.27 939.101 1041.64C995.155 1028.02 1058.06 996.566 1102.4 968.716C1146.74 940.866 1170.62 917.569 1189.33 890.425C1208.04 863.28 1220.85 832.995 1226.58 804.58C1232.3 776.165 1230.56 750.539 1224.42 731.222C1218.27 711.905 1207.79 699.674 1193.07 690.17C1178.35 680.666 1159.71 674.259 1118.95 679.404C1078.19 684.549 1015.87 701.439 962.804 722.371C909.733 743.302 867.799 767.764 837.752 794.343C807.704 820.923 790.814 848.879 780.366 872.89C769.918 896.902 766.423 916.122 765.497 932.721C764.57 949.319 766.317 962.715 774.498 983.011C782.678 1003.31 797.239 1030.1 813.767 1045.36C830.295 1060.61 848.35 1063.53 876.871 1055.13C905.392 1046.72 943.831 1026.92 983.145 991.968C1022.46 957.014 1061.48 907.509 1087.41 863.369C1113.33 819.229 1124.98 781.954 1131.86 746.153C1138.73 710.352 1140.48 677.154 1134.1 637.047C1127.72 596.939 1113.16 550.928 1094.3 512.374C1075.44 473.82 1052.73 444.116 1028.79 420.369C1004.86 396.623 980.4 379.733 951.2 368.12C922 356.506 888.802 350.682 860.925 351.176C833.048 351.671 811.499 358.66 787.293 375.947C763.088 393.234 736.879 420.608 720.465 442.863C704.052 465.119 698.228 481.426 694.936 500.893C691.644 520.36 691.062 542.492 694.548 562.921C698.033 583.349 705.605 601.404 721.154 617.694C736.702 633.984 759.999 647.962 781.61 656.619C803.222 665.276 822.441 668.188 843.117 666.194C863.793 664.2 885.342 657.211 907.51 642.253C929.677 627.295 951.809 604.581 968.161 578.028C984.512 551.475 994.413 521.772 998.932 491.327C1003.45 460.883 1002.28 430.597 993.24 402.182C984.195 373.767 967.305 348.141 949.867 332.319C932.43 316.496 914.958 311.254 896.638 308.263C878.318 305.271 859.681 304.689 836.684 308.466C813.687 312.243 786.896 320.397 765.815 331.586C744.733 342.776 730.172 356.754 718.595 373.273C707.017 389.793 698.863 408.43 694.954 435.504C691.044 462.577 691.627 497.522 699.79 527.173C707.952 556.823 723.677 580.12 742.553 594.159C761.429 608.199 782.978 612.276 808.057 610.008C833.137 607.74 861.093 599.004 882.483 586.35C903.874 573.695 917.852 557.388 927.965 537.63C938.078 517.871 943.902 495.157 936.419 462.198C928.936 429.238 907.969 386.722 882.607 357.539C857.245 328.356 828.124 313.796 785.458 305.421C742.791 297.047 687.462 295.3 614.404 308.086C541.345 320.873 452.236 348.247 381.578 383.607C310.92 418.966 261.414 461.483 231.835 498.819C202.255 536.156 194.101 567.024 191.939 587.294C189.777 607.564 193.854 616.3 207.02 627.207C220.186 638.114 242.318 650.927 271.774 658.402C301.231 665.876 337.34 667.623 379.239 660.078C421.138 652.534 467.731 635.643 508.624 604.519C549.517 573.395 583.297 528.549 604.485 491.469C625.672 454.388 633.244 426.432 628.117 398.052C622.99 369.673 604.935 341.717 576.414 324.694C547.893 307.672 509.454 302.43 471.596 305.263C433.739 308.095 397.629 319.161 364.758 337.384C331.887 355.606 303.348 380.65 283.987 409.859C264.626 439.069 255.308 471.684 251.963 500.134C248.619 528.584 251.531 551.881 258.564 571.745C265.597 591.609 276.663 607.334 295.468 623.007C314.273 638.679 340.482 653.822 365.923 662.496C391.364 671.171 415.243 672.918 435.698 669.159C456.154 665.4 472.461 656.081 489.016 642.253C505.571 628.425 521.879 610.37 533.483 588.838C545.087 567.306 551.494 542.845 554.503 518.304C557.512 493.763 556.929 469.884 551.096 444.478C545.263 419.072 534.198 392.863 521.217 374.411C508.236 355.959 493.675 346.058 478.312 339.793C462.948 333.527 447.223 331.198 425.144 337.569C403.065 343.94 375.109 359.083 352.554 377.076C329.998 395.07 313.691 415.454 302.669 434.4C291.647 453.347 286.405 470.237 286.908 496.993C287.411 523.749 293.818 559.859 308.184 592.439C322.551 625.019 344.682 652.975 366.567 676.404C388.452 699.833 409.419 717.888 435.363 729.81C461.307 741.732 491.593 746.973 524.667 742.976C557.741 738.978 592.686 725.583 625.54 706.451C658.394 687.32 688.097 662.858 709.223 636.57C730.349 610.282 741.997 582.908 747.124 557.158C752.251 531.408 750.504 508.112 740.576 487.083C730.649 466.054 712.594 447.999 689.024 435.786C665.453 423.573 636.915 417.749 602.12 416.496C567.325 415.242 527.138 418.737 486.925 427.235C446.711 435.733 407.689 449.129 374.483 467.678C341.276 486.227 315.067 509.524 297.489 537.25C279.91 564.977 271.757 596.427 268.139 628.937C264.521 661.446 265.685 694.062 270.362 721.93C275.039 749.797 283.193 771.929 303.119 797.6C323.045 823.27 354.495 851.809 388.17 869.714C421.844 887.618 456.789 894.025 500.709 886.842C544.628 879.659 596.463 858.692 650.249 829.836C704.034 800.979 758.199 764.87 801.245 715.399C844.291 665.929 874.577 604.193 883.481 555.79C892.385 507.388 878.989 474.19 857.236 449.517C835.484 424.844 805.781 409.701 778.831 398.696C751.881 387.692 728.584 381.286 692.412 382.645C656.241 384.004 607.9 393.322 574.552 406.859C541.204 420.396 524.314 437.868 505.421 468.128C486.528 498.387 466.143 540.903 455.642 574.163C445.141 607.423 445.141 630.137 448.635 650.574C452.13 671.012 459.119 688.485 472.038 703.019C484.957 717.553 503.594 728.618 526.008 731.698C548.423 734.778 574.049 729.536 597.443 716.352C620.837 703.169 641.221 682.202 653.47 656.84C665.718 631.478 669.213 602.357 666.645 571.048C664.077 539.739 655.34 507.123 637.153 473.722C618.966 440.322 591.592 407.124 565.26 382.159C538.928 357.195 514.466 341.47 480.898 330.457C447.329 319.444 405.395 313.619 365.155 314.696C324.916 315.773 287.641 323.926 254.169 336.863C220.698 349.8 192.16 367.272 167.557 389.669C142.954 412.066 123.152 438.857 112.077 467.219C101.002 495.581 99.2551 524.702 104.179 550.187C109.103 575.672 120.752 596.639 140.73 615.594C160.709 634.549 188.665 650.857 220.83 660.714C252.996 670.571 288.523 673.483 335.946 665.956C383.369 658.428 441.611 640.373 501.026 611.561C560.442 582.749 619.266 543.727 662.965 506.153C706.664 468.578 733.455 433.633 752.207 397.285C770.959 360.936 780.86 324.244 780.137 293.402C779.413 262.561 767.765 238.682 747.786 221.138C727.807 203.595 699.851 193.112 671.18 187.129C642.51 181.146 613.971 179.981 572.77 188.117C531.568 196.253 478.568 213.726 436.704 235.249C394.841 256.772 365.72 281.816 343.147 306.948C320.574 332.08 305.431 356.542 295.883 382.539C286.335 408.536 282.84 435.327 291.524 469.804C300.207 504.282 321.174 545.633 348.574 580.04C375.974 614.447 409.172 640.656 440.252 655.904C471.332 671.153 499.288 674.648 523.591 673.827C547.893 673.006 567.695 667.765 590.419 650.504C613.142 633.243 638.186 604.122 653.999 578.055C669.813 551.987 675.637 529.855 675.725 500.108C675.813 470.36 669.989 433.668 653.011 392.634C636.032 351.6 608.076 307.336 572.999 272.012C537.922 236.687 496.57 211.643 455.174 198.159C413.778 184.676 373.591 183.511 326.098 188.444C278.604 193.377 225.022 204.443 168.298 224.121C111.574 243.8 53.3324 271.756 16.0488 292.855C-21.2348 313.955 -35.7952 327.35 -45.3345 336.872C-54.8738 346.394 -58.9507 351.635 -62.2158 359.577C-65.4809 367.519 -67.8105 378.003 -70.2108 388.804" stroke="#818181" stroke-width="2" stroke-linecap="round"/>
<path d="M940.991 -19.7117C942.633 -16.5531 944.641 10.4068 942.926 63.7622C941.961 93.7967 934.46 129.467 928.381 157.443C922.303 185.419 916.253 204.525 905.686 228.697C895.12 252.87 880.221 281.53 867.772 303.519C855.324 325.507 845.778 339.954 832.127 356.137C818.476 372.319 801.01 389.798 781.357 407.892C761.705 425.986 740.395 444.165 722.081 458.309C703.766 472.453 689.093 482.01 667.616 492.646C646.14 503.282 618.304 514.708 598.49 521.062C568.386 530.716 551.088 528.969 540.057 526.987C527.888 524.802 510.788 508.617 490.334 488.716C475.097 473.892 464.705 448.338 454.056 415.583C444.783 387.063 447.756 357.254 453.144 331.165C456.914 312.904 469.336 296.833 482.835 280.081C492.695 267.845 506.856 263.442 520.129 261.545C530.433 260.072 539.011 267.972 546.357 273.835C567.445 290.663 554.751 337.807 547.267 352.252C538.843 368.509 522.653 371.543 515.905 371.842C509.272 371.326 503.348 368.402 497.774 363.416C494.764 360.876 491.385 358.314 487.196 351.793" stroke="#AA11AA" stroke-width="88" stroke-linecap="round"/>
<path d="M205.114 309.384C205.114 312.878 205.114 316.373 202.202 331.277C199.29 346.182 193.466 372.391 189.883 410.062C186.3 447.734 185.135 496.075 182.788 503.796C180.441 511.518 176.946 477.155 177.184 447.222C177.423 417.29 181.5 392.828 185.638 376.15C191.938 350.764 202.714 337.093 211.521 327.103C215.408 322.694 219.163 320.608 221.545 321.447C223.928 322.285 225.093 326.362 225.11 348.264C225.128 370.167 223.963 409.771 224.528 437.454C225.392 479.787 230.987 498.193 234.5 502.323C249.257 519.676 265.085 447.752 273.036 427.111C274.624 422.991 275.11 420.043 275.701 419.416C279.886 414.982 279.805 436.404 284.208 444.637C285.925 447.847 288.029 448.211 289.803 448.22C291.577 448.228 293.324 447.646 295.098 446.764C296.871 445.881 298.619 444.716 302.184 443.516" stroke="#AA11AA" stroke-width="26" stroke-linecap="round"/>
<path d="M131.59 694.763C131.59 705.247 130.425 721.131 128.66 743.713C125.233 787.568 136.285 798.875 138.923 802.105C140.246 803.724 142.144 804.752 145.956 805.061C155.565 805.839 168.582 800.11 183.249 788.691C191.631 782.165 199.08 770.866 214.929 738.674C230.778 706.482 254.074 652.9 266.076 624.423C278.077 595.946 278.077 594.199 277.786 597.085C276.732 607.525 269.905 635.727 260.199 668.652C255.408 684.901 258.063 692.963 261.575 700.296C263.519 704.354 267.417 708.212 270.382 710.895C273.347 713.577 275.677 714.742 277.75 710.683C284.08 698.293 279.877 677.803 271.962 659.015C264.552 641.428 252.239 632.427 239.355 628.315C220.216 622.206 196.415 625.332 165.962 631.756C146.306 635.903 119.2 646.334 96.9451 655.794C74.6896 665.254 58.382 674.573 53.4755 680.247C48.4338 686.078 84.3084 690.051 121.91 689.769C148.058 689.572 174.954 677.767 202.874 667.769C226.436 659.332 242.708 667.654 258.019 673.567C271.296 678.694 285.066 693.493 297.456 721.122C309.568 748.134 280.477 768.254 267.532 793.792C264.751 799.277 264.558 801.787 264.258 801.822C261.96 802.093 269.2 776.161 286.751 726.92C297.105 697.873 318.281 663.701 328.765 643.369C339.248 623.038 340.413 618.378 338.392 617.434C331.575 614.249 322.235 626.479 315.484 636.442C307.18 648.697 306.315 661.777 308.063 672.031C314.462 709.586 345.708 730.044 351.276 732.691C357.933 735.856 386.089 721.36 424.882 699.334C440.823 690.283 447.366 682.55 450.967 680.115C454.567 677.679 454.567 680.009 452.529 684.703C450.49 689.398 446.413 696.387 443.731 699.114C440.946 701.944 418.881 684.315 381.889 657.312C349.781 633.875 329.912 618.308 307.683 615.069C292 612.784 266.817 614.743 256.536 615.334C251.371 615.631 278.448 614.778 327.115 607.754C354.354 603.822 386.265 596.07 407.135 591.014C436.933 583.794 447.49 580.045 450.72 581.21C454.844 582.697 456.314 612.731 459.835 654.179C462.696 687.854 487.43 711.106 496.025 719.816C514.6 738.639 494.595 660.189 491.065 637.563C488.916 623.788 488.118 614.796 486.344 609.201C485.813 607.526 496.272 618.202 516.754 647.155C531.257 667.658 552.378 701.152 566.391 720.875C580.405 740.598 586.229 745.84 590.394 744.754C611.781 739.181 612.738 710.736 639.361 687.889C657 672.753 686.369 654.559 706.022 642.328C734.921 624.342 749.853 620.055 755.448 620.629C756.966 621.785 755.801 624.697 754.618 627.071C753.436 629.444 752.271 631.192 747.541 636.522" stroke="#AA11AA" stroke-width="26" stroke-linecap="round"/>
</g>
<defs>
<clipPath id="clip0_1_22">
<rect width="1000" height="1000" fill="white"/>
</clipPath>
</defs>
</svg>
