<svg width="10" height="14" viewBox="0 0 10 14" fill="none" xmlns="http://www.w3.org/2000/svg">
<path d="M0.28095 5.10937C-0.0936502 4.72152 -0.093651 3.99625 0.28095 3.6084L2.81708 0.982422C4.08681 -0.332053 5.91258 -0.332035 7.18232 0.982422L9.71845 3.6084C10.093 3.99625 10.0931 4.72152 9.71845 5.10937C9.43637 5.40111 9.03078 5.40116 8.74872 5.10937L7.11689 3.41895C6.77833 3.06845 6.39738 2.81793 5.9997 2.66016L5.9997 13C5.9997 13.5523 5.55199 14 4.9997 14C4.44742 14 3.9997 13.5523 3.9997 13L3.9997 2.66016C3.60203 2.81793 3.22106 3.06845 2.88251 3.41895L1.25068 5.10937C0.968618 5.40117 0.563032 5.40111 0.28095 5.10937Z" fill="#F1FAFF"/>
</svg>
