<svg width="15" height="8" viewBox="0 0 15 8" fill="none" xmlns="http://www.w3.org/2000/svg">
<rect x="3.4969e-07" y="1" width="1" height="1" transform="rotate(-90 3.4969e-07 1)" fill="white"/>
<rect x="1" y="2" width="1" height="1" transform="rotate(-90 1 2)" fill="white"/>
<rect x="2" y="3" width="1" height="1" transform="rotate(-90 2 3)" fill="white"/>
<rect x="3" y="4" width="1" height="1" transform="rotate(-90 3 4)" fill="white"/>
<rect x="4" y="5" width="1" height="1" transform="rotate(-90 4 5)" fill="white"/>
<rect x="5" y="6" width="1" height="1" transform="rotate(-90 5 6)" fill="white"/>
<rect x="6" y="7" width="1" height="1" transform="rotate(-90 6 7)" fill="white"/>
<rect x="7" y="8" width="1" height="1" transform="rotate(-90 7 8)" fill="white"/>
<rect x="8" y="7" width="1" height="1" transform="rotate(-90 8 7)" fill="white"/>
<rect x="9" y="6" width="1" height="1" transform="rotate(-90 9 6)" fill="white"/>
<rect x="10" y="5" width="1" height="1" transform="rotate(-90 10 5)" fill="white"/>
<rect x="11" y="4" width="1" height="1" transform="rotate(-90 11 4)" fill="white"/>
<rect x="12" y="3" width="1" height="1" transform="rotate(-90 12 3)" fill="white"/>
<rect x="13" y="2" width="1" height="1" transform="rotate(-90 13 2)" fill="white"/>
<rect x="14" y="1" width="1" height="1" transform="rotate(-90 14 1)" fill="white"/>
</svg>
