<svg width="20" height="20" viewBox="0 0 20 20" fill="none" xmlns="http://www.w3.org/2000/svg">
<path d="M2.24583 12.8154L18.7389 0L14.0415 10.0311L19.1863 10.3418L12.6994 19.1672L0.605469 20L8.03182 13.3375L2.24583 12.8154Z" fill="#FFFF11"/>
<path d="M14.0415 10.0311L19.1863 10.3418L12.6994 19.1672L0.605469 20L8.03182 13.3375L2.24583 12.8154L18.7389 0L14.0415 10.0311ZM4.6946 12.1362L10.2752 12.6397L3.27711 18.918L12.0683 18.3126L17.3491 11.1282L12.512 10.836L16.0263 3.33121L4.6946 12.1362Z" fill="#FF7F11"/>
<path d="M3.55859 7.50757L19.6294 5.16777L19.9972 6.92284L3.92637 9.26265L3.55859 7.50757Z" fill="#77CAFF"/>
<path d="M0 15.4725L19.8135 14.1284L20 16.2078L0.186547 17.5519L0 15.4725Z" fill="#77CAFF"/>
</svg>
