<svg width="20" height="20" viewBox="0 0 20 20" fill="none" xmlns="http://www.w3.org/2000/svg">
<path d="M15.9429 10.7833C15.9762 10.5333 15.9929 10.275 15.9929 10C15.9929 9.73334 15.9762 9.46667 15.9346 9.21667L17.6262 7.9C17.6991 7.83992 17.7489 7.75642 17.7672 7.66373C17.7854 7.57104 17.7709 7.47489 17.7262 7.39167L16.1262 4.625C16.0791 4.54131 16.0039 4.47698 15.9139 4.44343C15.8239 4.40987 15.725 4.40925 15.6346 4.44167L13.6429 5.24167C13.2262 4.925 12.7846 4.65834 12.2929 4.45834L11.9929 2.34167C11.9781 2.24628 11.9297 2.15934 11.8563 2.09665C11.7829 2.03396 11.6894 1.99967 11.5929 2H8.39289C8.19289 2 8.03456 2.14167 8.00122 2.34167L7.70122 4.45834C7.20956 4.65834 6.75956 4.93334 6.35122 5.24167L4.35956 4.44167C4.17622 4.375 3.96789 4.44167 3.86789 4.625L2.27622 7.39167C2.17622 7.56667 2.20956 7.78334 2.37622 7.9L4.06789 9.21667C4.02622 9.46667 3.99289 9.74167 3.99289 10C3.99289 10.2583 4.00956 10.5333 4.05122 10.7833L2.35956 12.1C2.28666 12.1601 2.23685 12.2436 2.21862 12.3363C2.20038 12.429 2.21485 12.5251 2.25956 12.6083L3.85956 15.375C3.95956 15.5583 4.16789 15.6167 4.35122 15.5583L6.34289 14.7583C6.75956 15.075 7.20122 15.3417 7.69289 15.5417L7.99289 17.6583C8.03456 17.8583 8.19289 18 8.39289 18H11.5929C11.7929 18 11.9596 17.8583 11.9846 17.6583L12.2846 15.5417C12.7762 15.3417 13.2262 15.075 13.6346 14.7583L15.6262 15.5583C15.8096 15.625 16.0179 15.5583 16.1179 15.375L17.7179 12.6083C17.8179 12.425 17.7762 12.2167 17.6179 12.1L15.9429 10.7833ZM9.99289 13C8.34289 13 6.99289 11.65 6.99289 10C6.99289 8.35 8.34289 7 9.99289 7C11.6429 7 12.9929 8.35 12.9929 10C12.9929 11.65 11.6429 13 9.99289 13Z" fill="#818181"/>
</svg>
