<svg width="20" height="20" viewBox="0 0 20 20" fill="none" xmlns="http://www.w3.org/2000/svg">
<g clip-path="url(#clip0_3927_5)">
<path d="M10.3123 2.50648C10.7863 2.5259 11.2488 2.58917 11.6961 2.69257L12.6697 0.299072L12.3145 2.86392C12.7345 3.00006 13.1383 3.17234 13.5222 3.37692L15.0793 1.32202L14.0741 3.70209C14.4277 3.93133 14.7608 4.18958 15.07 4.47342L17.0752 2.91504L15.5154 4.91783C15.812 5.2396 16.081 5.58727 16.3182 5.95726L18.7268 4.94263L16.6438 6.51695C16.8526 6.91443 17.0268 7.33294 17.1623 7.76848L19.7278 7.41455L17.3267 8.39005C17.4185 8.80973 17.4751 9.24255 17.4934 9.68529L20 10L17.4934 10.3122C17.475 10.7631 17.4167 11.2037 17.3221 11.6307L19.7107 12.6013L17.1574 12.2473C17.0234 12.6745 16.8522 13.0852 16.6476 13.4757L18.6877 15.0208L16.329 14.0256C16.0905 14.3998 15.8198 14.7513 15.5206 15.0764L17.0752 17.0752L15.0764 15.5206C14.7472 15.8236 14.3907 16.0975 14.0112 16.3382L14.9988 18.678L13.466 16.6526C13.0728 16.8579 12.6593 17.0294 12.229 17.1632L12.5757 19.6594L11.6247 17.3234C11.1996 17.4173 10.761 17.4751 10.3122 17.4934L10 20L9.68529 17.4934C9.25337 17.4755 8.83092 17.4212 8.42087 17.3333L7.4939 19.6179L7.82944 17.1809C7.39134 17.0487 6.97013 16.8776 6.5699 16.6714L5.07935 18.6426L6.03691 16.3686C5.63631 16.1188 5.26109 15.8321 4.91577 15.5135L2.93335 17.0569L4.47464 15.0713C4.16913 14.7386 3.89321 14.3784 3.6512 13.9945L1.40625 14.9426L3.34946 13.4702C3.13167 13.0537 2.95186 12.6142 2.81464 12.1563C2.82428 12.1888 2.83409 12.2212 2.84424 12.2534L0.408936 12.5916L2.68539 11.6644C2.58629 11.227 2.52544 10.7751 2.50648 10.3123L0 10L2.50656 9.68513C2.52535 9.23023 2.58466 8.7858 2.68097 8.35533L0.391846 7.42554L2.83813 7.76367C2.81074 7.85149 2.78533 7.94012 2.76154 8.0294C2.9047 7.50227 3.10397 6.99824 3.35243 6.52405L1.36719 5.02075L3.6618 5.98862C3.90263 5.60889 4.17671 5.25235 4.47983 4.92294L2.93335 2.93335L4.92294 4.47983C5.24835 4.18039 5.60024 3.90928 5.97481 3.67058L4.99878 1.35742L6.51283 3.35823C6.98641 3.10907 7.48992 2.90916 8.01651 2.76512C7.92497 2.78967 7.83413 2.8159 7.74414 2.84424L7.39868 0.340576L8.35037 2.68211C8.78239 2.58515 9.22848 2.52542 9.68513 2.50656L10 0L10.3123 2.50648ZM16.0794 8.67691L16.077 8.67737C16.077 8.67737 16.0726 8.67818 16.0692 8.67882C16.0623 8.6801 16.0521 8.68203 16.0387 8.68462C16.0119 8.68981 15.9722 8.6976 15.9213 8.70819C15.8195 8.72939 15.6723 8.76163 15.4916 8.80547C15.1481 8.88875 14.6834 9.01416 14.1766 9.18633C14.1984 9.30732 14.2151 9.42956 14.227 9.55276L15.675 9.65912L14.2456 9.91211C14.2484 10.1672 14.2316 10.4246 14.1868 10.6821L15.5608 11.1596L14.1108 11.0336C14.0838 11.1364 14.0544 11.2397 14.0192 11.3419C13.9725 11.4774 13.9187 11.6086 13.8602 11.7361L15.0524 12.5475L13.6954 12.0541C13.5682 12.279 13.4208 12.4871 13.2588 12.6809L14.2042 13.7749L13.0164 12.9461C12.8397 13.1242 12.6487 13.2846 12.4452 13.4277L13.0686 14.7101L12.1497 13.6195C11.9415 13.7416 11.7244 13.8474 11.4985 13.9326L11.7734 15.3579L11.1564 14.0443C10.9011 14.1168 10.6389 14.1647 10.3718 14.1882L10.2684 15.6445L10.0128 14.2155C10.0105 14.2339 10.0081 14.2523 10.0059 14.2706C9.93698 14.832 9.90988 15.3418 9.89998 15.7111C9.89503 15.8956 9.89435 16.0451 9.89494 16.1484C9.89518 16.1894 9.89573 16.2232 9.89616 16.249C9.93071 16.2496 9.96532 16.25 10 16.25C13.4518 16.25 16.25 13.4518 16.25 10C16.25 9.54417 16.2011 9.09975 16.1085 8.67165L16.0794 8.67691ZM4.68315 6.71303C4.09154 7.66795 3.75 8.79409 3.75 10C3.75 12.877 5.69389 15.2997 8.33984 16.0269C8.34165 16.0214 8.34394 16.0148 8.34648 16.0069C8.35468 15.9816 8.36668 15.9441 8.38165 15.8957C8.41161 15.7989 8.45362 15.6582 8.50182 15.4832C8.59825 15.1331 8.71934 14.6456 8.8179 14.0963C8.82121 14.0779 8.82434 14.0594 8.82759 14.0408C8.75728 14.0212 8.68697 14.0002 8.61717 13.9762C8.48977 13.9323 8.3663 13.881 8.24593 13.8266L7.43973 15.0205L7.92778 13.6662C7.69894 13.5386 7.48753 13.3895 7.2905 13.226L6.21971 14.1545L7.02919 12.9893C6.8538 12.8171 6.69394 12.6323 6.55205 12.4342L5.2478 13.0703L6.35429 12.1352C6.22273 11.9146 6.10864 11.6838 6.01875 11.443L4.61472 11.7149L5.91003 11.1049C5.84124 10.8602 5.79631 10.6085 5.77232 10.3529L4.35844 10.2525L5.75577 10.0001C5.75338 9.75589 5.76791 9.50952 5.8091 9.26308L4.47701 8.80295L5.8802 8.92151C5.90949 8.80565 5.9439 8.6901 5.98351 8.57506C6.02799 8.44587 6.07832 8.3202 6.13365 8.19824L4.95644 7.40211L6.29265 7.88406C6.30407 7.86358 6.31567 7.84323 6.32744 7.82303C5.90661 7.49823 5.5121 7.23004 5.215 7.03873C5.05304 6.93444 4.92006 6.85297 4.82765 6.79764C4.78147 6.76998 4.74539 6.74882 4.72092 6.73462C4.7087 6.72753 4.69933 6.72218 4.69307 6.7186C4.68996 6.71682 4.68597 6.71463 4.68597 6.71463L4.68315 6.71303V6.71303ZM13.7022 9.35753C12.7286 9.73074 11.699 10.268 11.1118 10.9975C10.5475 11.6986 10.2426 12.7627 10.0792 13.7578C12.1177 13.7201 13.7585 12.056 13.7585 10.0085C13.7585 9.7865 13.7392 9.56897 13.7022 9.35753ZM6.74583 8.15895C6.43575 8.70476 6.25854 9.33594 6.25854 10.0085C6.25854 11.6931 7.36937 13.1182 8.89847 13.5914C9.03636 12.6046 9.06783 11.5079 8.76389 10.6702C8.42829 9.74526 7.58344 8.859 6.74583 8.15895ZM10.7827 9.9556C10.7367 9.52854 10.3532 9.21957 9.92615 9.26552C9.49909 9.31149 9.19014 9.69494 9.23607 10.122C9.28203 10.5491 9.66548 10.8581 10.0925 10.8121C10.5196 10.7662 10.8286 10.3827 10.7827 9.9556ZM10.0085 6.25854C9.02173 6.25854 8.12409 6.63989 7.45453 7.26303C8.30927 7.88699 9.33386 8.48099 10.2771 8.62511C11.378 8.79329 12.4453 8.66773 13.3852 8.37585C12.7782 7.12274 11.4944 6.25854 10.0085 6.25854ZM10 3.75C8.25634 3.75 6.67947 4.46407 5.54581 5.61569L5.55687 5.62714V5.62714L5.5587 5.62904C5.5587 5.62904 5.56172 5.63222 5.56412 5.63469C5.569 5.63971 5.57633 5.6472 5.58594 5.65697C5.60521 5.67655 5.63383 5.70539 5.67101 5.74219C5.74537 5.81581 5.8541 5.92146 5.99136 6.04927C6.24762 6.28788 6.60319 6.60374 7.02026 6.93306C7.17845 6.77723 7.34759 6.63463 7.52686 6.50635L6.89629 5.20699L7.82547 6.30989C8.05178 6.17507 8.28953 6.06043 8.53683 5.96947L8.27118 4.58084L8.87199 5.86113C9.10024 5.798 9.33483 5.75768 9.5726 5.73341L9.67461 4.32755L9.92119 5.71259C10.1755 5.70778 10.4323 5.72245 10.6892 5.76492L11.1523 4.43253L11.0307 5.83603C11.1488 5.86566 11.267 5.89999 11.3842 5.94032C11.5218 5.98772 11.6559 6.04055 11.7853 6.10023L12.5853 4.92455L12.0982 6.26312C12.3143 6.38548 12.5148 6.52713 12.7023 6.68175L13.8036 5.73189L12.9705 6.92375C13.1569 7.10646 13.3256 7.3039 13.4742 7.51556L14.7517 6.89796L13.6642 7.81189C13.7392 7.94015 13.8081 8.07181 13.87 8.20671C14.5418 7.94571 15.1321 7.60309 15.6007 7.23305L15.6042 7.23022C14.5831 5.16796 12.4571 3.75 10 3.75Z" fill="black"/>
</g>
<defs>
<clipPath id="clip0_3927_5">
<rect width="20" height="20" fill="white"/>
</clipPath>
</defs>
</svg>
