<svg width="20" height="22" viewBox="0 0 20 22" fill="none" xmlns="http://www.w3.org/2000/svg">
<path d="M10 22C20.0414 16 20 4 20 4L10 0L0 4C0 4 0 16 10 22Z" fill="#FF1111"/>
<path d="M10.0013 14.4032C7.2436 14.4032 5 12.1528 5 9.38698C5 7.88345 5.65522 6.47382 6.79758 5.52162C6.85091 5.4769 6.91254 5.44314 6.97893 5.4223C7.04531 5.40145 7.11515 5.39392 7.18445 5.40014C7.25374 5.40636 7.32113 5.42621 7.38276 5.45854C7.44438 5.49088 7.49903 5.53507 7.54357 5.58858C7.58811 5.6421 7.62168 5.70388 7.64234 5.77041C7.663 5.83693 7.67035 5.90688 7.66397 5.97625C7.65759 6.04562 7.63761 6.11304 7.60517 6.17467C7.57273 6.2363 7.52846 6.29091 7.47491 6.33538C6.57444 7.08654 6.05796 8.19884 6.05796 9.38698C6.05796 11.5687 7.82693 13.3438 10.0013 13.3438C12.1756 13.3438 13.9446 11.5687 13.9446 9.38698C13.9445 8.8039 13.8155 8.22808 13.5668 7.70087C13.318 7.17366 12.9558 6.70815 12.506 6.33779C12.4503 6.29424 12.4039 6.23995 12.3695 6.17813C12.3351 6.11632 12.3134 6.04822 12.3057 5.97787C12.298 5.90752 12.3045 5.83634 12.3247 5.76854C12.345 5.70074 12.3786 5.63768 12.4236 5.58311C12.4686 5.52853 12.524 5.48353 12.5867 5.45078C12.6493 5.41802 12.7179 5.39817 12.7884 5.39239C12.8588 5.38662 12.9297 5.39503 12.9968 5.41715C13.064 5.43926 13.126 5.47462 13.1793 5.52114C13.7494 5.9907 14.2086 6.5809 14.5239 7.24931C14.8392 7.91773 15.0026 8.64777 15.0026 9.38698C15.0026 12.1528 12.759 14.4032 10.0013 14.4032Z" fill="white"/>
<path d="M10.0212 9.39296C9.88087 9.39296 9.74633 9.33716 9.64712 9.23782C9.54792 9.13849 9.49219 9.00377 9.49219 8.86329V4.52967C9.49219 4.38919 9.54792 4.25447 9.64712 4.15514C9.74633 4.0558 9.88087 4 10.0212 4C10.1615 4 10.296 4.0558 10.3952 4.15514C10.4944 4.25447 10.5502 4.38919 10.5502 4.52967V8.86329C10.5502 9.00377 10.4944 9.13849 10.3952 9.23782C10.296 9.33716 10.1615 9.39296 10.0212 9.39296Z" fill="white"/>
</svg>
