<svg width="40" height="40" viewBox="0 0 40 40" fill="none" xmlns="http://www.w3.org/2000/svg">
<path d="M4.49166 25.6308L37.4778 0L28.083 20.0622L38.3725 20.6837L25.3988 38.3344L1.21094 40L16.0636 26.675L4.49166 25.6308Z" fill="#FFFF11"/>
<path d="M28.083 20.0622L38.3725 20.6837L25.3988 38.3344L1.21094 40L16.0636 26.675L4.49166 25.6308L37.4778 0L28.083 20.0622ZM9.3892 24.2723L20.5504 25.2794L6.55422 37.836L24.1366 36.6252L34.6981 22.2564L25.024 21.672L32.0527 6.66243L9.3892 24.2723Z" fill="#FF7F11"/>
<path d="M7.11719 15.0156L39.2588 10.336L39.9943 13.8462L7.85274 18.5258L7.11719 15.0156Z" fill="#77CAFF"/>
<path d="M0 30.9453L39.6269 28.2571L40 32.4159L0.373093 35.1041L0 30.9453Z" fill="#77CAFF"/>
</svg>
