<svg width="40" height="40" viewBox="0 0 40 40" fill="none" xmlns="http://www.w3.org/2000/svg">
<path d="M0 0H40V40H0V0Z" fill="#1AAA11"/>
<path d="M32.1641 4.79688L35.6996 8.33241L8.82954 35.2025L5.29401 31.6669L32.1641 4.79688Z" fill="#FAFAFA"/>
<path d="M28 20.5C28 16.3579 24.6421 13 20.5 13C16.3579 13 13 16.3579 13 20.5C13 24.6421 16.3579 28 20.5 28V33C13.5964 33 8 27.4036 8 20.5C8 13.5964 13.5964 8 20.5 8C27.4036 8 33 13.5964 33 20.5C33 27.4036 27.4036 33 20.5 33V28C24.6421 28 28 24.6421 28 20.5Z" fill="#FAFAFA"/>
<path d="M0 19H40V20H0V19Z" fill="#1AAA11"/>
</svg>
