<svg width="16" height="16" viewBox="0 0 16 16" fill="none" xmlns="http://www.w3.org/2000/svg">
<path d="M13.9843 5.45492C13.8925 5.52695 12.2704 6.45024 12.2704 8.50325C12.2704 10.8779 14.3344 11.718 14.3962 11.7388C14.3867 11.7899 14.0683 12.8892 13.3079 14.0094C12.6299 14.9951 11.9219 15.9791 10.8447 15.9791C9.76746 15.9791 9.49024 15.3471 8.24672 15.3471C7.03487 15.3471 6.60401 16 5.61868 16C4.63335 16 3.94588 15.0878 3.1554 13.9678C2.23978 12.6525 1.5 10.609 1.5 8.66967C1.5 5.55896 3.5023 3.90918 5.47293 3.90918C6.52003 3.90918 7.39288 4.60365 8.0503 4.60365C8.676 4.60365 9.65181 3.86758 10.8431 3.86758C11.2945 3.86758 12.9166 3.90918 13.9843 5.45492ZM10.2776 2.55065C10.7702 1.96019 11.1187 1.14091 11.1187 0.32163C11.1187 0.208015 11.1092 0.092808 11.0886 0C10.287 0.0303963 9.33341 0.539253 8.75838 1.21292C8.30691 1.73137 7.88555 2.55065 7.88555 3.38113C7.88555 3.50595 7.90612 3.63075 7.91565 3.67076C7.96631 3.68036 8.04869 3.69156 8.13107 3.69156C8.85025 3.69156 9.75478 3.20511 10.2776 2.55065Z" fill="black"/>
</svg>
