<svg width="30" height="30" viewBox="0 0 30 30" fill="none" xmlns="http://www.w3.org/2000/svg">
<path d="M10.1484 4.85645C10.6917 4.75776 11.2117 5.11787 11.3105 5.66113C11.4093 6.20443 11.0491 6.72533 10.5059 6.82422C9.52498 7.00276 8.85827 7.36682 8.39648 7.82031C7.93152 8.27697 7.61373 8.88331 7.43262 9.64062C7.06126 11.1939 7.29681 13.2389 7.85742 15.3799C8.41075 17.493 9.24618 19.5729 9.9502 21.1348C9.99494 21.234 10.0415 21.33 10.085 21.4248L11.877 15.2539C12.031 14.7236 12.5859 14.4183 13.1162 14.5723C13.6464 14.7264 13.9508 15.2813 13.7969 15.8115L11.2871 24.4551C11.1329 24.9851 10.578 25.2897 10.0479 25.1357L1.40527 22.626C0.874974 22.4719 0.569629 21.9171 0.723633 21.3867C0.87776 20.8565 1.43262 20.5521 1.96289 20.7061L8.41309 22.5791C8.32107 22.3823 8.22528 22.1742 8.12695 21.9561C7.39881 20.3406 6.51527 18.149 5.92285 15.8867C5.33773 13.6522 4.99935 11.2168 5.4873 9.17578C5.73587 8.13619 6.20704 7.16754 6.99512 6.39355C7.78643 5.61639 8.8381 5.09488 10.1484 4.85645ZM18.7012 5.56055C18.8554 5.03048 19.4102 4.72591 19.9404 4.87988L28.583 7.38965C29.1132 7.54381 29.4186 8.09865 29.2646 8.62891C29.1105 9.15896 28.5556 9.46336 28.0254 9.30957L21.5752 7.43652C21.6672 7.63327 21.763 7.84149 21.8613 8.05957C22.5895 9.67498 23.473 11.8667 24.0654 14.1289C24.6505 16.3634 24.9889 18.7989 24.501 20.8398C24.2524 21.8794 23.7812 22.8481 22.9932 23.6221C22.2019 24.3992 21.1501 24.9207 19.8398 25.1592C19.2966 25.2579 18.7767 24.8977 18.6777 24.3545C18.5789 23.8112 18.9391 23.2903 19.4824 23.1914C20.4632 23.0128 21.13 22.6488 21.5918 22.1953C22.0567 21.7387 22.3745 21.1323 22.5557 20.375C22.927 18.8217 22.6914 16.7766 22.1309 14.6357C21.5776 12.5228 20.7421 10.4427 20.0381 8.88086C19.9934 8.78166 19.9468 8.68552 19.9033 8.59082L18.1113 14.7617C17.9572 15.2919 17.4023 15.5972 16.8721 15.4434C16.3419 15.2892 16.0375 14.7343 16.1914 14.2041L18.7012 5.56055Z" fill="white"/>
</svg>
